# This file uses centimeters as units for non-parametric coordinates.

mtllib office.mtl
g default
v 29.754032 5.327356 10.163939
v 32.755360 5.327356 10.163939
v 29.725801 6.123192 10.253797
v 32.793041 6.123192 10.253797
v 29.725801 6.123192 2.070991
v 32.793041 6.123192 2.070991
v 29.754032 5.645456 2.737658
v 32.755360 5.645456 2.737658
v 29.562016 5.452516 10.690751
v 32.956825 5.452516 10.690751
v 32.956825 5.788419 10.690751
v 29.562016 5.788419 10.690751
v 29.562016 5.788419 1.634040
v 32.956825 5.788419 1.634040
v 32.956825 5.452516 1.634040
v 29.562016 5.452516 1.634040
v 29.754030 3.931419 10.163943
v 32.755360 3.931419 10.163943
v 32.956825 4.008957 10.690751
v 29.562016 4.008957 10.690751
v 29.754030 3.931419 1.942767
v 32.755360 3.931419 1.942767
v 29.562016 4.008957 1.634040
v 32.956825 4.008957 1.634040
v 30.969326 5.684850 3.675544
v 31.549513 5.684850 3.675544
v 31.549513 5.684850 8.649242
v 30.969326 5.684850 8.649242
v 31.045908 5.541105 3.675544
v 31.472931 5.541105 3.675544
v 31.472931 5.541105 8.649242
v 31.045908 5.541105 8.649242
v 29.754030 5.034626 3.217119
v 29.754030 5.034626 9.107669
v 29.754030 4.550098 9.107669
v 29.754030 4.550098 3.217119
v 29.580914 5.034626 3.217117
v 29.580914 5.034626 9.107671
v 29.580914 4.549847 3.217117
v 29.580914 4.549847 9.107671
v 30.837070 3.892654 1.918608
v 31.678127 3.892654 1.918608
v 30.837069 3.892647 1.658201
v 31.678129 3.892647 1.658201
v 30.837070 5.322266 1.953357
v 31.678127 5.322266 1.953357
v 30.837069 5.322266 1.658172
v 31.678129 5.322266 1.658172
v 32.785610 3.579735 10.233974
v 29.733232 3.579735 10.233974
v 30.818659 3.579720 2.112544
v 31.679764 3.579720 2.112544
v 32.785610 3.579720 2.090822
v 29.733232 3.579720 2.090822
v 30.998905 3.931419 6.890524
v 31.519938 3.931419 6.890524
v 31.368172 3.931419 5.732302
v 31.150667 3.931419 5.732302
v 31.192888 3.931419 5.410103
v 31.325951 3.931419 5.410103
v 30.818653 5.788419 1.634040
v 30.818653 6.123192 2.070991
v 30.818653 6.123192 10.253797
v 30.818653 5.788419 10.690751
v 30.818653 5.452516 10.690751
v 30.818659 4.008957 10.690751
v 30.818659 3.579735 10.233974
v 31.679766 3.579735 10.233974
v 31.679766 4.008957 10.690751
v 31.679764 5.452516 10.690751
v 31.679764 5.788419 10.690751
v 31.679764 6.123192 10.253797
v 31.679768 6.123192 2.070991
v 31.679766 5.788419 1.634040
vt 0.525265 0.691390
vt 0.136879 0.905847
vt 0.458530 0.534484
vt 0.788912 0.364906
vt 0.114660 0.125412
vt 0.812539 0.825565
vt 0.812543 0.844479
vt 0.592245 0.844526
vt 0.538024 0.905761
vt 0.922194 0.691358
vt 0.922195 0.706079
vt 0.538027 0.920639
vt 0.136882 0.920725
vt 0.525266 0.706112
vt 0.862338 0.141522
vt 0.823756 0.140502
vt 0.518677 0.937151
vt 0.156239 0.937228
vt 0.903046 0.722415
vt 0.544417 0.722444
vt 0.592241 0.825612
vt 0.443590 0.139394
vt 0.594648 0.673052
vt 0.867351 0.566339
vt 0.850764 0.517862
vt 0.861696 0.166152
vt 0.867346 0.583107
vt 0.396810 0.152375
vt 0.852807 0.673032
vt 0.818905 0.822172
vt 0.812544 0.851693
vt 0.677778 0.441214
vt 0.585878 0.847920
vt 0.592239 0.818398
vt 0.712141 0.492617
vt 0.079629 0.025317
vt 0.135904 0.152460
vt 0.160192 0.032359
vt 0.955138 0.521085
vt 0.527228 0.535397
vt 0.527228 0.511678
vt 0.955136 0.504308
vt 0.079476 0.201342
vt 0.023488 0.087505
vt 0.464547 0.706869
vt 0.788911 0.350028
vt 0.104570 0.706854
vt 0.104813 0.668718
vt 0.525257 0.628096
vt 0.823093 0.165127
vt 0.156896 0.058006
vt 0.078405 0.249335
vt 0.078420 0.286581
vt 0.079528 0.334315
vt 0.443610 0.201224
vt 0.443661 0.334151
vt 0.298653 0.279492
vt 0.298644 0.256414
vt 0.767469 0.469392
vt 0.247349 0.272790
vt 0.247345 0.263155
vt 0.066674 0.024221
vt 0.160192 0.024898
vt 0.841198 0.411589
vt 0.922191 0.628063
vt 0.852807 0.651787
vt 0.594645 0.651808
vt 0.464308 0.668731
vt 0.827052 0.350027
vt 0.096093 0.534548
vt 0.827053 0.364905
vt 0.827053 0.389286
vt 0.788913 0.389287
vt 0.827049 0.286088
vt 0.545275 0.607841
vt 0.862059 0.120624
vt 0.788909 0.286089
vt 0.827048 0.258325
vt 0.096086 0.496408
vt 0.824392 0.119627
vt 0.136865 0.841908
vt 0.538010 0.841822
vt 0.902170 0.607812
vt 0.768828 0.059102
vt 0.826170 0.055707
vt 0.458523 0.496343
vt 0.788908 0.258327
vt 0.740507 0.389289
vt 0.733252 0.364908
vt 0.733251 0.350030
vt 0.733249 0.286091
vt 0.740831 0.258329
vt 0.883614 0.286085
vt 0.918982 0.127858
vt 0.863701 0.056720
vt 0.826644 0.031033
vt 0.865315 0.032107
vt 0.920612 0.063172
vt 0.913925 0.034791
vt 0.777032 0.031109
vt 0.767007 0.123812
vt 0.918598 0.142900
vt 0.910640 0.167363
vt 0.773240 0.163710
vt 0.233075 0.265031
vt 0.096061 0.050942
vt 0.067533 0.088720
vt 0.396816 0.173836
vt 0.233077 0.270926
vt 0.505490 0.334129
vt 0.443689 0.395980
vt 0.114771 0.410219
vt 0.548248 0.441220
vt 0.599749 0.397676
vt 0.626273 0.397674
vt 0.505439 0.201199
vt 0.791270 0.406546
vt 0.546348 0.104746
vt 0.717672 0.414242
vt 0.599780 0.170675
vt 0.767433 0.408272
vt 0.847745 0.489663
vt 0.791255 0.465827
vt 0.812537 0.818351
vt 0.818910 0.847870
vt 0.592246 0.851740
vt 0.585873 0.822222
vt 0.156900 0.050942
vt 0.078953 0.088686
vt 0.096101 0.582954
vt 0.458538 0.582890
vt 0.766591 0.138857
vt 0.096077 0.447098
vt 0.105119 0.620793
vt 0.876029 0.258323
vt 0.157093 0.821435
vt 0.517774 0.821358
vt 0.883616 0.350024
vt 0.464967 0.620804
vt 0.104256 0.755979
vt 0.883617 0.364902
vt 0.458515 0.447034
vt 0.465819 0.755996
vt 0.876363 0.389284
vt 0.135911 0.173921
vt 0.857279 0.529336
vt 0.945323 0.504298
vt 0.850764 0.511678
vt 0.679651 0.104742
vt 0.626224 0.170674
vt 0.632242 0.483833
vt 0.593788 0.483835
vt 0.527228 0.517862
vt 0.857536 0.566356
vt 0.527228 0.529336
vt 0.857533 0.583132
vt 0.945323 0.521067
vt 0.857279 0.535397
vt 0.034872 0.087508
vt 0.096064 0.058004
vt 0.022637 0.023940
vt 0.035549 0.022805
vt 0.094919 0.032359
vt 0.094919 0.024898
vn 0.000000 0.000000 1.000000
vn 0.000000 0.000000 1.000000
vn 0.000000 0.000000 1.000000
vn 0.000000 0.000000 1.000000
vn 0.000000 1.000000 0.000000
vn 0.000000 1.000000 0.000000
vn 0.000000 1.000000 0.000000
vn 0.000000 1.000000 0.000000
vn 0.000000 -1.000000 0.000000
vn 0.000000 -1.000000 0.000000
vn 0.000000 -1.000000 0.000000
vn 0.000000 -1.000000 0.000000
vn 1.000000 0.000000 0.000000
vn 1.000000 0.000000 0.000000
vn 1.000000 0.000000 0.000000
vn 1.000000 0.000000 0.000000
vn -1.000000 0.000000 0.000000
vn -1.000000 0.000000 0.000000
vn -1.000000 0.000000 0.000000
vn -1.000000 0.000000 0.000000
vn 0.000000 0.793804 0.608174
vn 0.000000 0.793804 0.608174
vn 0.000000 0.793804 0.608174
vn 0.000000 0.793804 0.608174
vn 0.000000 0.793801 -0.608178
vn 0.000000 0.793801 -0.608178
vn 0.000000 0.793801 -0.608178
vn 0.000000 0.793801 -0.608178
vn 0.898260 0.439466 0.000000
vn 0.898259 0.439466 0.000000
vn 0.898259 0.439465 0.000000
vn 0.898259 0.439465 0.000000
vn -0.898260 0.439464 0.000000
vn -0.898260 0.439464 0.000000
vn -0.898260 0.439464 0.000000
vn -0.898260 0.439464 0.000000
vn 0.000000 -0.000003 -1.000000
vn 0.000000 -0.000003 -1.000000
vn 0.000000 -0.000003 -1.000000
vn 0.000000 -0.000003 -1.000000
vn 0.000000 0.000000 1.000000
vn 0.000000 0.000000 1.000000
vn 0.000000 0.000000 1.000000
vn 0.000000 0.000000 1.000000
vn -1.000000 0.000002 0.000000
vn -1.000000 0.000002 0.000000
vn -1.000000 0.000002 0.000000
vn -1.000000 0.000002 0.000000
vn 1.000000 0.000000 0.000000
vn 1.000000 0.000000 0.000000
vn 1.000000 0.000000 0.000000
vn 1.000000 0.000000 0.000000
vn 0.000000 -0.999119 0.041965
vn 0.000000 -0.999119 0.041965
vn 0.000000 -0.999119 0.041965
vn 0.000000 -0.999119 0.041965
vn -0.156430 -0.987364 -0.025329
vn -0.156430 -0.987364 -0.025329
vn -0.156430 -0.987364 -0.025329
vn -0.156430 -0.987364 -0.025329
vn 0.000000 -0.973260 -0.229706
vn 0.000000 -0.973260 -0.229706
vn 0.000000 -0.973260 -0.229706
vn 0.000000 -0.973260 -0.229706
vn 0.155244 -0.987551 -0.025334
vn 0.155244 -0.987551 -0.025334
vn 0.155244 -0.987551 -0.025334
vn 0.155244 -0.987551 -0.025334
vn 0.000000 0.000000 -1.000000
vn 0.000000 0.000000 -1.000000
vn 0.000000 0.000000 -1.000000
vn 0.000000 0.000000 -1.000000
vn 0.882565 -0.470191 0.000000
vn 0.882565 -0.470191 0.000000
vn 0.882565 -0.470191 0.000000
vn 0.882565 -0.470191 0.000000
vn 0.000000 0.000000 1.000000
vn 0.000000 0.000000 1.000000
vn 0.000000 0.000000 1.000000
vn 0.000000 0.000000 1.000000
vn -0.882557 -0.470205 0.000000
vn -0.882557 -0.470205 0.000000
vn -0.882557 -0.470205 0.000000
vn -0.882557 -0.470205 0.000000
vn 1.000000 -0.000003 -0.000000
vn 1.000000 -0.000003 -0.000000
vn 1.000000 -0.000003 -0.000000
vn 1.000000 -0.000003 -0.000000
vn 1.000000 -0.000003 -0.000001
vn 1.000000 -0.000003 -0.000001
vn 1.000000 -0.000003 -0.000001
vn 1.000000 -0.000003 -0.000001
vn 1.000000 0.000000 0.000000
vn 1.000000 0.000000 0.000000
vn 1.000000 0.000000 0.000000
vn 1.000000 0.000000 0.000000
vn 1.000000 -0.000002 0.000001
vn 1.000000 -0.000002 0.000001
vn 1.000000 -0.000002 0.000001
vn 1.000000 -0.000002 0.000001
vn -0.998979 -0.045178 0.000000
vn -0.998979 -0.045178 0.000000
vn -0.998979 -0.045178 0.000000
vn -0.998979 -0.045178 0.000000
vn -0.999929 0.000000 0.011937
vn -0.999929 0.000000 0.011937
vn -0.999929 0.000000 0.011937
vn -0.999929 0.000000 0.011937
vn -0.999390 0.034916 0.000000
vn -0.999390 0.034916 0.000000
vn -0.999390 0.034916 0.000000
vn -0.999390 0.034916 0.000000
vn -0.999929 0.000000 -0.011937
vn -0.999929 0.000000 -0.011937
vn -0.999929 0.000000 -0.011937
vn -0.999929 0.000000 -0.011937
vn -0.001454 0.999999 0.000000
vn -0.001454 0.999999 0.000000
vn -0.001454 0.999999 0.000000
vn -0.001454 0.999999 0.000000
vn 0.000000 -1.000000 0.000000
vn 0.000000 -1.000000 0.000000
vn 0.000000 -1.000000 0.000000
vn 0.000000 -1.000000 0.000000
vn -0.000011 0.000000 1.000000
vn -0.000011 0.000000 1.000000
vn -0.000011 0.000000 1.000000
vn -0.000011 0.000000 1.000000
vn -0.000011 0.000000 -1.000000
vn -0.000011 0.000000 -1.000000
vn -0.000011 0.000000 -1.000000
vn -0.000011 0.000000 -1.000000
vn 0.000000 -0.924577 0.380995
vn 0.000000 -0.924577 0.380995
vn 0.000000 -0.924577 0.380995
vn 0.000000 -0.924577 0.380995
vn 0.303254 -0.243157 0.921364
vn 0.303254 -0.243157 0.921364
vn 0.303254 -0.243157 0.921364
vn 0.303254 -0.243157 0.921364
vn -0.304738 -0.243036 0.920906
vn -0.304738 -0.243036 0.920906
vn -0.304738 -0.243036 0.920906
vn -0.304738 -0.243036 0.920906
vn -0.004463 -0.039484 -0.999210
vn -0.004314 -0.039893 -0.999195
vn 0.004244 -0.040117 -0.999186
vn 0.004579 -0.039201 -0.999221
vn -0.018879 -0.000010 -0.999822
vn -0.018879 -0.000010 -0.999822
vn -0.018879 -0.000010 -0.999822
vn -0.018879 -0.000010 -0.999822
vn 0.018933 -0.000010 -0.999821
vn 0.018933 -0.000010 -0.999821
vn 0.018933 -0.000010 -0.999821
vn 0.018933 -0.000010 -0.999821
vn 0.000000 -0.728745 0.684785
vn 0.000000 -0.728745 0.684785
vn 0.000000 -0.728745 0.684785
vn 0.000000 -0.728745 0.684785
vn 0.000000 -0.823562 -0.567226
vn 0.000000 -0.823562 -0.567226
vn 0.000000 -0.823562 -0.567226
vn 0.000000 -0.823562 -0.567226
vn 0.928834 -0.370496 0.000000
vn 0.928834 -0.370496 0.000000
vn 0.928834 -0.370496 0.000000
vn 0.928834 -0.370496 0.000000
vn -0.928830 -0.370505 0.000000
vn -0.928830 -0.370505 0.000000
vn -0.928831 -0.370505 0.000000
vn -0.928831 -0.370505 0.000000
vn -0.026076 -0.777206 -0.628706
vn -0.026076 -0.777206 -0.628706
vn -0.026076 -0.777206 -0.628706
vn -0.026076 -0.777206 -0.628706
vn 0.025828 -0.777422 -0.628449
vn 0.025828 -0.777422 -0.628449
vn 0.025828 -0.777422 -0.628449
vn 0.025828 -0.777422 -0.628449
vn 0.000000 1.000000 0.000000
vn 0.000000 1.000000 0.000000
vn 0.000000 1.000000 0.000000
vn 0.000000 1.000000 0.000000
vn 0.000000 1.000000 0.000000
vn 0.000000 1.000000 0.000000
vn 0.000000 1.000000 0.000000
vn 0.000000 1.000000 0.000000
vn 0.000000 1.000000 0.000000
vn 0.000000 1.000000 0.000000
vn 0.000000 1.000000 0.000000
vn 0.000000 1.000000 0.000000
vn 0.030531 0.999454 -0.012670
vn 0.030531 0.999454 -0.012670
vn 0.030531 0.999454 -0.012670
vn 0.030531 0.999454 -0.012670
vn -0.030694 0.999449 -0.012654
vn -0.030694 0.999449 -0.012654
vn -0.030694 0.999449 -0.012654
vn -0.030694 0.999449 -0.012654
vn 0.000000 0.999938 -0.011102
vn 0.000000 0.999938 -0.011102
vn 0.000000 0.999938 -0.011102
vn 0.000000 0.999938 -0.011102
vn 0.000000 1.000000 0.000000
vn 0.000000 1.000000 0.000000
vn 0.000000 1.000000 0.000000
vn 0.000000 1.000000 0.000000
vn 0.000000 1.000000 0.000001
vn 0.000000 1.000000 0.000001
vn 0.000000 -1.000000 0.000001
vn 0.000000 -1.000000 0.000001
vn 0.000000 -1.000000 0.000001
vn 0.000000 -1.000000 0.000001
vn 1.000000 0.000000 -0.000007
vn 1.000000 0.000000 -0.000007
vn 1.000000 0.000000 -0.000007
vn 1.000000 0.000000 -0.000007
vn -1.000000 0.000002 -0.000007
vn -1.000000 0.000002 -0.000007
vn -1.000000 0.000002 -0.000007
vn -1.000000 0.000002 -0.000007
vn 0.000000 1.000000 -0.000030
vn 0.000000 1.000000 -0.000030
vn 0.000000 1.000000 -0.000030
vn 0.000000 1.000000 -0.000030
vn 0.000000 -1.000000 0.000002
vn 0.000000 -1.000000 0.000002
vn -0.000000 -1.000000 0.000002
vn -0.000000 -1.000000 0.000002
vn 0.007990 -0.029890 -0.999521
vn 0.007990 -0.029890 -0.999521
vn 0.000000 0.793801 -0.608178
vn 0.000000 0.793801 -0.608177
vn 0.000000 1.000000 0.000000
vn 0.000000 1.000000 0.000000
vn 0.000000 0.793804 0.608174
vn 0.000000 0.793804 0.608174
vn 0.000000 0.000000 1.000000
vn 0.000000 0.000000 1.000000
vn 0.000000 0.000000 1.000000
vn 0.000000 0.000000 1.000000
vn 0.000000 -0.728745 0.684785
vn 0.000000 -0.728745 0.684785
vn -0.000000 -1.000000 0.000002
vn -0.000000 -1.000000 0.000002
vn 0.000000 -1.000000 0.000002
vn 0.000000 -1.000000 0.000002
vn 0.000000 -0.728745 0.684785
vn 0.000000 -0.728745 0.684785
vn 0.000000 0.000000 1.000000
vn 0.000000 0.000000 1.000000
vn 0.000000 0.000000 1.000000
vn 0.000000 0.000000 1.000000
vn 0.000000 0.793804 0.608174
vn 0.000000 0.793804 0.608174
vn 0.000000 1.000000 0.000000
vn 0.000000 1.000000 0.000000
vn 0.000000 0.793801 -0.608178
vn 0.000000 0.793801 -0.608178
vn -0.007906 -0.030057 -0.999517
vn -0.007906 -0.030057 -0.999517
s 1
g pCube38
usemtl initialShadingGroup
f 64/4/1 65/46/2 70/69/3 71/71/4
s 2
f 62/3/5 63/70/6 72/79/7 73/86/8
s off
f 29/6/9 30/7/10 31/8/11 32/21/12
f 10/2/13 15/9/14 14/12/15 11/13/16
f 16/1/17 9/10/18 12/11/19 13/14/20
s 3
f 71/71/21 72/72/22 63/73/23 64/4/24
s 4
f 61/15/25 62/26/26 73/50/27 74/16/28
s off
f 6/17/29 4/18/30 11/13/31 14/12/32
f 3/19/33 5/20/34 13/14/35 12/11/36
f 18/56/37 17/55/38 1/116/39 2/110/40
s 5
f 65/46/41 66/77/42 69/74/43 70/69/44
s off
f 22/54/45 18/56/46 2/111/47 8/112/48
f 19/81/49 24/82/50 15/9/51 10/2/52
f 7/32/53 8/113/54 26/114/55 25/115/56
f 8/113/57 2/118/58 27/120/59 26/114/60
f 2/118/61 1/149/62 28/150/63 27/120/64
f 1/149/65 7/32/66 25/115/67 28/150/68
f 25/30/69 26/125/70 30/7/71 29/6/72
f 26/31/73 27/126/74 31/8/75 30/7/76
f 27/33/77 28/127/78 32/21/79 31/8/80
f 28/34/81 25/124/82 29/6/83 32/21/84
f 7/5/85 1/22/86 34/28/87 33/37/88
f 17/55/89 35/108/90 34/28/91 1/22/92
f 17/55/93 21/43/94 36/145/95 35/108/96
f 7/5/97 33/37/98 36/145/99 21/43/100
f 9/10/101 16/1/102 37/23/103 38/29/104
f 37/23/105 16/1/106 23/49/107 39/67/108
f 23/49/109 20/65/110 40/66/111 39/67/112
f 40/66/113 20/65/114 9/10/115 38/29/116
f 35/155/117 36/146/118 39/158/119 40/40/120
f 33/25/121 34/153/122 38/41/123 37/148/124
f 33/147/125 37/42/126 39/39/127 36/157/128
f 35/27/129 40/156/130 38/154/131 34/24/132
f 8/113/133 7/32/134 45/151/135 46/152/136
f 45/59/137 7/35/138 21/119/139 41/121/140
f 42/117/141 22/64/142 8/122/143 46/123/144
s 6
f 74/16/145 48/80/146 47/76/147 61/15/148
s off
f 24/84/149 44/85/150 48/80/151 15/101/152
f 16/94/153 47/76/154 43/95/155 23/98/156
s 7
f 68/78/157 69/74/158 66/77/159 67/87/160
s off
f 43/95/161 44/85/162 52/96/163 51/97/164
f 24/82/165 19/81/166 49/136/167 53/137/168
f 20/65/169 23/49/170 54/75/171 50/83/172
f 23/98/173 43/95/174 51/97/175 54/99/176
f 44/85/177 24/84/178 53/100/179 52/96/180
f 17/55/181 18/56/182 56/57/183 55/58/184
f 18/56/185 22/54/186 57/60/187 56/57/188
f 21/43/189 17/55/190 55/58/191 58/61/192
f 41/52/193 21/43/194 58/61/195 59/105/196
f 22/54/197 42/53/198 60/109/199 57/60/200
f 42/53/201 41/52/202 59/105/203 60/109/204
s 8
f 55/58/205 56/57/206 57/60/207 58/61/208
f 58/61/208 57/60/207 60/109/209 59/105/210
s off
f 46/38/211 45/163/212 47/164/213 48/63/214
f 43/107/215 47/62/216 45/36/217 41/129/218
f 48/162/219 44/159/220 42/44/221 46/161/222
f 44/106/223 43/128/224 41/51/225 42/160/226
s 9
f 52/45/227 68/47/228 67/48/229 51/68/230
s 6
f 47/76/147 16/94/231 13/102/232 61/15/148
s 4
f 5/103/233 62/26/26 61/15/25 13/102/234
s 2
f 3/130/235 63/70/6 62/3/5 5/131/236
s 3
f 64/4/24 63/73/23 3/88/237 12/89/238
s 1
f 9/90/239 65/46/2 64/4/1 12/89/240
s 5
f 9/90/241 20/91/242 66/77/42 65/46/41
s 7
f 67/87/160 66/77/159 20/91/243 50/92/244
s 9
f 51/68/230 67/48/229 50/134/245 54/139/246
f 49/140/247 68/47/228 52/45/227 53/143/248
s 7
f 19/93/249 69/74/158 68/78/157 49/135/250
s 5
f 69/74/43 19/93/251 10/138/252 70/69/44
s 1
f 71/71/4 70/69/3 10/138/253 11/141/254
s 3
f 4/144/255 72/72/22 71/71/21 11/141/256
s 2
f 73/86/8 72/79/7 4/133/257 6/142/258
s 4
f 74/16/28 73/50/27 6/104/259 14/132/260
s 6
f 15/101/261 48/80/146 74/16/145 14/132/262
