# This file uses centimeters as units for non-parametric coordinates.

mtllib socket.mtl
g default
v 1.750264 -0.096617 -1.515315
v 1.738501 -0.096617 -1.532920
v 1.720897 -0.096617 -1.544682
v 1.700131 -0.096617 -1.548813
v 1.679366 -0.096617 -1.544682
v 1.661761 -0.096617 -1.532920
v 1.649999 -0.096617 -1.515315
v 1.645868 -0.096617 -1.494550
v 1.649999 -0.096617 -1.473784
v 1.661761 -0.096617 -1.456180
v 1.679366 -0.096617 -1.444417
v 1.700131 -0.096617 -1.440287
v 1.720897 -0.096617 -1.444417
v 1.738501 -0.096617 -1.456180
v 1.750264 -0.096617 -1.473784
v 1.754394 -0.096617 -1.494550
v 1.750264 0.011909 -1.515315
v 1.738501 0.011909 -1.532920
v 1.720897 0.011909 -1.544682
v 1.700131 0.011909 -1.548813
v 1.679366 0.011909 -1.544682
v 1.661761 0.011909 -1.532920
v 1.649999 0.011909 -1.515315
v 1.645868 0.011909 -1.494550
v 1.649999 0.011909 -1.473784
v 1.661761 0.011909 -1.456180
v 1.679366 0.011909 -1.444417
v 1.700131 0.011909 -1.440287
v 1.720897 0.011909 -1.444417
v 1.738501 0.011909 -1.456180
v 1.750264 0.011909 -1.473784
v 1.754394 0.011909 -1.494550
v 1.737402 0.007801 -1.509988
v 1.732026 0.012879 -1.526445
v 1.715569 0.007801 -1.531820
v 1.700131 0.012879 -1.539656
v 1.684693 0.007801 -1.531820
v 1.668236 0.012879 -1.526445
v 1.662861 0.007801 -1.509988
v 1.655025 0.012879 -1.494550
v 1.662861 0.007801 -1.479112
v 1.668236 0.012879 -1.462655
v 1.684693 0.007801 -1.457279
v 1.700131 0.012879 -1.449443
v 1.715569 0.007801 -1.457279
v 1.732026 0.012879 -1.462655
v 1.737402 0.007801 -1.479112
v 1.745238 0.012879 -1.494550
v 1.737402 -0.078170 -1.509988
v 1.732026 -0.083248 -1.526445
v 1.700131 -0.078170 -1.494550
v 1.715569 -0.078170 -1.531820
v 1.700131 -0.083248 -1.539656
v 1.684693 -0.078170 -1.531820
v 1.668236 -0.083248 -1.526445
v 1.662861 -0.078170 -1.509988
v 1.655025 -0.083248 -1.494550
v 1.662861 -0.078170 -1.479112
v 1.668236 -0.083248 -1.462655
v 1.684693 -0.078170 -1.457279
v 1.700131 -0.083248 -1.449443
v 1.715569 -0.078170 -1.457279
v 1.732026 -0.083248 -1.462655
v 1.737402 -0.078170 -1.479112
v 1.745238 -0.083248 -1.494550
v 1.700131 -0.096617 -1.494550
v 1.700131 -0.096617 -1.456180
v 1.700131 -0.096617 -1.473784
v 1.700131 -0.096617 -1.515315
v 1.700131 -0.096617 -1.532920
v 1.661761 0.006435 -1.532920
v 1.679366 0.006435 -1.544682
v 1.700131 0.006435 -1.548813
v 1.720897 0.006435 -1.544682
v 1.738501 0.006435 -1.532920
v 1.750264 0.006435 -1.515315
v 1.754394 0.006435 -1.494550
v 1.750264 0.006435 -1.473784
v 1.738501 0.006435 -1.456180
v 1.720897 0.006435 -1.444417
v 1.700131 0.006435 -1.440287
v 1.679366 0.006435 -1.444417
v 1.661761 0.006435 -1.456180
v 1.649999 0.006435 -1.473784
v 1.645868 0.006435 -1.494550
v 1.649999 0.006435 -1.515315
v 1.661761 -0.092554 -1.532920
v 1.679366 -0.092554 -1.544683
v 1.700131 -0.092554 -1.548813
v 1.720897 -0.092554 -1.544682
v 1.738501 -0.092554 -1.532920
v 1.750264 -0.092554 -1.515315
v 1.754394 -0.092554 -1.494550
v 1.750264 -0.092554 -1.473784
v 1.738501 -0.092554 -1.456180
v 1.720897 -0.092554 -1.444417
v 1.700131 -0.092554 -1.440287
v 1.679366 -0.092554 -1.444417
v 1.661761 -0.092554 -1.456180
v 1.649999 -0.092554 -1.473784
v 1.645868 -0.092554 -1.494550
v 1.649999 -0.092554 -1.515315
v 1.737402 0.002841 -1.479112
v 1.732026 0.007919 -1.462655
v 1.715569 0.002841 -1.457279
v 1.700131 0.007919 -1.449443
v 1.684693 0.002841 -1.457279
v 1.668236 0.007919 -1.462655
v 1.662861 0.002841 -1.479112
v 1.655025 0.007919 -1.494550
v 1.662861 0.002841 -1.509988
v 1.668236 0.007919 -1.526445
v 1.684693 0.002841 -1.531820
v 1.700131 0.007919 -1.539656
v 1.715569 0.002841 -1.531820
v 1.732026 0.007919 -1.526445
v 1.737402 0.002841 -1.509988
v 1.745238 0.007919 -1.494550
vt 0.890930 0.675220
vt 0.908659 0.674421
vt 0.908812 0.677824
vt 0.891083 0.678623
vt 0.926388 0.673622
vt 0.926542 0.677025
vt 0.944118 0.672823
vt 0.944271 0.676226
vt 0.660446 0.685606
vt 0.678175 0.684807
vt 0.678329 0.688210
vt 0.660599 0.689009
vt 0.695905 0.684008
vt 0.696058 0.687411
vt 0.713634 0.683209
vt 0.713788 0.686612
vt 0.731364 0.682410
vt 0.731517 0.685813
vt 0.749093 0.681611
vt 0.749247 0.685014
vt 0.766823 0.680812
vt 0.766976 0.684215
vt 0.784553 0.680014
vt 0.784706 0.683416
vt 0.802282 0.679215
vt 0.802435 0.682618
vt 0.820011 0.678416
vt 0.820165 0.681819
vt 0.837741 0.677617
vt 0.837894 0.681020
vt 0.855471 0.676818
vt 0.855624 0.680221
vt 0.873200 0.676019
vt 0.873353 0.679422
vt 0.696194 0.812263
vt 0.703323 0.819517
vt 0.669473 0.829903
vt 0.702117 0.830134
vt 0.705720 0.842531
vt 0.641758 0.856003
vt 0.639851 0.843251
vt 0.634245 0.833894
vt 0.637996 0.824235
vt 0.637456 0.814678
vt 0.644615 0.809204
vt 0.648086 0.801290
vt 0.656338 0.800074
vt 0.662582 0.794774
vt 0.670346 0.797322
vt 0.678336 0.795369
vt 0.684471 0.801234
vt 0.692983 0.803501
vt 0.748419 0.840435
vt 0.739809 0.841485
vt 0.740088 0.837723
vt 0.746834 0.834704
vt 0.731448 0.839179
vt 0.733860 0.833743
vt 0.724128 0.834527
vt 0.726730 0.831797
vt 0.716241 0.816748
vt 0.717706 0.808200
vt 0.723354 0.810060
vt 0.720012 0.816652
vt 0.721608 0.800454
vt 0.724584 0.802772
vt 0.728165 0.794776
vt 0.731349 0.799798
vt 0.736095 0.791266
vt 0.736924 0.794945
vt 0.744766 0.791038
vt 0.744041 0.796939
vt 0.753123 0.793356
vt 0.751429 0.796726
vt 0.759969 0.798682
vt 0.755664 0.802783
vt 0.764957 0.805777
vt 0.761509 0.807306
vt 0.766869 0.814237
vt 0.760939 0.814675
vt 0.766222 0.822886
vt 0.762587 0.821880
vt 0.762332 0.830638
vt 0.757470 0.827214
vt 0.756344 0.836912
vt 0.754172 0.833828
vt 0.807968 0.983145
vt 0.822237 0.988439
vt 0.822237 0.983268
vt 0.807968 0.977974
vt 0.836507 0.983145
vt 0.836507 0.977974
vt 0.850776 0.988439
vt 0.850776 0.983268
vt 0.622466 0.988439
vt 0.636735 0.983145
vt 0.636735 0.977974
vt 0.622466 0.983268
vt 0.651004 0.988439
vt 0.651004 0.983268
vt 0.665274 0.983145
vt 0.665274 0.977974
vt 0.679543 0.988439
vt 0.679543 0.983268
vt 0.693813 0.983145
vt 0.693813 0.977974
vt 0.708082 0.988439
vt 0.708082 0.983268
vt 0.722351 0.983145
vt 0.722351 0.977974
vt 0.736621 0.988439
vt 0.736621 0.983268
vt 0.750890 0.983145
vt 0.750890 0.977974
vt 0.765160 0.988439
vt 0.765160 0.983268
vt 0.779429 0.983145
vt 0.779429 0.977974
vt 0.793699 0.988439
vt 0.793699 0.983268
vt 0.904480 0.825397
vt 0.889182 0.827788
vt 0.883218 0.791464
vt 0.897251 0.806335
vt 0.832197 0.836694
vt 0.824669 0.789204
vt 0.843976 0.782212
vt 0.852219 0.833565
vt 0.895188 0.864371
vt 0.903771 0.845778
vt 0.839795 0.884626
vt 0.860544 0.885435
vt 0.880008 0.878312
vt 0.872228 0.830438
vt 0.864520 0.783005
vt 0.799874 0.841746
vt 0.815214 0.839348
vt 0.820964 0.876013
vt 0.806947 0.860940
vt 0.809504 0.802943
vt 0.800788 0.821381
vt 0.682064 0.771102
vt 0.699794 0.770303
vt 0.700000 0.774887
vt 0.682271 0.775686
vt 0.664335 0.771901
vt 0.664541 0.776484
vt 0.930277 0.759917
vt 0.948007 0.759118
vt 0.948213 0.763701
vt 0.930484 0.764500
vt 0.912548 0.760716
vt 0.912754 0.765299
vt 0.894818 0.761515
vt 0.895025 0.766098
vt 0.877089 0.762314
vt 0.877295 0.766897
vt 0.859359 0.763113
vt 0.859566 0.767696
vt 0.841630 0.763912
vt 0.841836 0.768495
vt 0.823900 0.764711
vt 0.824107 0.769294
vt 0.806171 0.765509
vt 0.806377 0.770093
vt 0.788441 0.766308
vt 0.788648 0.770892
vt 0.770712 0.767107
vt 0.770918 0.771691
vt 0.752982 0.767906
vt 0.753189 0.772490
vt 0.735253 0.768705
vt 0.735459 0.773289
vt 0.717523 0.769504
vt 0.717730 0.774088
vt 0.779429 0.893516
vt 0.765160 0.888222
vt 0.750890 0.893516
vt 0.736621 0.888222
vt 0.722351 0.893516
vt 0.708082 0.888222
vt 0.693813 0.893516
vt 0.679543 0.888222
vt 0.665274 0.893516
vt 0.651004 0.888222
vt 0.636735 0.893516
vt 0.622466 0.888222
vt 0.850776 0.888222
vt 0.836507 0.893516
vt 0.822237 0.888222
vt 0.807968 0.893516
vt 0.793699 0.888222
vn 0.923882 0.000000 -0.382678
vn 0.707106 0.000000 -0.707107
vn 0.707107 0.000000 -0.707107
vn 0.923882 0.000000 -0.382677
vn 0.382677 0.000000 -0.923882
vn 0.382679 0.000000 -0.923881
vn 0.000006 -0.000006 -1.000000
vn 0.000004 -0.000000 -1.000000
vn -0.382679 -0.000022 -0.923882
vn -0.382679 0.000000 -0.923881
vn -0.707108 -0.000016 -0.707105
vn -0.707107 0.000000 -0.707106
vn -0.923882 0.000000 -0.382678
vn -0.923882 0.000000 -0.382677
vn -1.000000 0.000000 0.000000
vn -1.000000 0.000000 0.000000
vn -0.923882 0.000000 0.382678
vn -0.923882 0.000000 0.382679
vn -0.707108 0.000000 0.707105
vn -0.707107 0.000000 0.707106
vn -0.382680 0.000000 0.923881
vn -0.382679 0.000000 0.923881
vn 0.000000 0.000000 1.000000
vn 0.000000 0.000000 1.000000
vn 0.382680 0.000000 0.923881
vn 0.382679 0.000000 0.923881
vn 0.707108 0.000000 0.707105
vn 0.707107 0.000000 0.707106
vn 0.923882 0.000000 0.382678
vn 0.923882 0.000000 0.382679
vn 1.000000 0.000000 0.000000
vn 1.000000 0.000000 0.000000
vn -0.000001 1.000000 -0.000001
vn 0.079101 0.993723 -0.079104
vn -0.000001 1.000000 0.000000
vn -0.000001 1.000000 -0.000000
vn -0.000003 0.993723 -0.111868
vn -0.000003 1.000000 0.000002
vn -0.079101 0.993723 -0.079104
vn 0.000001 1.000000 -0.000001
vn -0.111868 0.993723 0.000000
vn 0.000001 1.000000 0.000000
vn -0.079104 0.993723 0.079102
vn -0.000001 1.000000 -0.000000
vn 0.000000 0.993723 0.111868
vn 0.000001 1.000000 -0.000000
vn 0.079102 0.993723 0.079103
vn -0.000001 1.000000 0.000001
vn 0.111867 0.993723 -0.000000
vn -0.053641 0.983357 0.173586
vn -0.053641 0.983357 0.173586
vn -0.053641 0.983357 0.173586
vn -0.053641 0.983357 0.173586
vn -0.173588 0.983356 0.053640
vn -0.173588 0.983356 0.053640
vn -0.173588 0.983356 0.053640
vn -0.173588 0.983356 0.053640
vn 0.084816 0.983357 0.160675
vn 0.084816 0.983357 0.160675
vn 0.084816 0.983357 0.160675
vn 0.084816 0.983357 0.160675
vn -0.084816 0.983357 0.160674
vn -0.084816 0.983357 0.160674
vn -0.084816 0.983357 0.160674
vn -0.084816 0.983357 0.160674
vn 0.173587 0.983357 0.053640
vn 0.173587 0.983357 0.053640
vn 0.173587 0.983357 0.053640
vn 0.173586 0.983357 0.053640
vn 0.053644 0.983356 0.173590
vn 0.053644 0.983356 0.173590
vn 0.053644 0.983356 0.173590
vn 0.053644 0.983356 0.173590
vn 0.160672 0.983357 -0.084816
vn 0.160672 0.983357 -0.084816
vn 0.160672 0.983357 -0.084816
vn 0.160672 0.983357 -0.084816
vn 0.160676 0.983356 0.084816
vn 0.160676 0.983356 0.084815
vn 0.160676 0.983356 0.084816
vn 0.160676 0.983356 0.084816
vn 0.053639 0.983357 -0.173586
vn 0.053639 0.983357 -0.173586
vn 0.053639 0.983357 -0.173586
vn 0.053639 0.983357 -0.173586
vn 0.173584 0.983357 -0.053642
vn 0.173584 0.983357 -0.053642
vn 0.173584 0.983357 -0.053642
vn 0.173584 0.983357 -0.053642
vn -0.084815 0.983356 -0.160676
vn -0.084815 0.983356 -0.160676
vn -0.084815 0.983356 -0.160676
vn -0.084815 0.983356 -0.160676
vn 0.084814 0.983357 -0.160675
vn 0.084814 0.983357 -0.160675
vn 0.084814 0.983357 -0.160675
vn 0.084814 0.983357 -0.160675
vn -0.173586 0.983357 -0.053641
vn -0.173586 0.983357 -0.053641
vn -0.173586 0.983357 -0.053641
vn -0.173586 0.983357 -0.053641
vn -0.053639 0.983356 -0.173588
vn -0.053639 0.983357 -0.173588
vn -0.053639 0.983357 -0.173588
vn -0.053639 0.983356 -0.173588
vn -0.160677 0.983356 0.084816
vn -0.160677 0.983356 0.084816
vn -0.160677 0.983356 0.084816
vn -0.160677 0.983356 0.084816
vn -0.160675 0.983357 -0.084816
vn -0.160675 0.983356 -0.084816
vn -0.160675 0.983357 -0.084816
vn -0.160675 0.983356 -0.084816
vn -0.950579 0.000000 0.310484
vn -0.950579 0.000000 0.310484
vn -0.950579 0.000000 0.310483
vn -0.950579 0.000000 0.310483
vn -0.310494 -0.000011 0.950575
vn -0.310494 -0.000011 0.950575
vn -0.310493 0.000000 0.950576
vn -0.310493 -0.000000 0.950576
vn -0.452608 -0.000017 0.891710
vn -0.452608 -0.000017 0.891710
vn -0.452597 -0.000000 0.891715
vn -0.452597 0.000000 0.891715
vn 0.452606 -0.000011 0.891711
vn 0.452606 -0.000011 0.891711
vn 0.452604 0.000000 0.891711
vn 0.452604 -0.000000 0.891711
vn 0.310479 -0.000007 0.950580
vn 0.310479 -0.000007 0.950580
vn 0.310487 -0.000000 0.950578
vn 0.310487 0.000000 0.950578
vn 0.950576 0.000000 0.310491
vn 0.950576 0.000000 0.310491
vn 0.950577 0.000000 0.310488
vn 0.950577 0.000000 0.310488
vn 0.891715 0.000000 0.452597
vn 0.891715 0.000000 0.452597
vn 0.891714 0.000000 0.452599
vn 0.891714 0.000000 0.452599
vn 0.891713 -0.000022 -0.452602
vn 0.891713 -0.000022 -0.452602
vn 0.891711 0.000000 -0.452605
vn 0.891711 -0.000001 -0.452605
vn 0.950578 -0.000009 -0.310487
vn 0.950578 -0.000009 -0.310487
vn 0.950578 -0.000000 -0.310485
vn 0.950578 0.000000 -0.310485
vn 0.310496 0.000000 -0.950575
vn 0.310496 0.000000 -0.950575
vn 0.310484 0.000000 -0.950579
vn 0.310485 0.000000 -0.950578
vn 0.452603 0.000022 -0.891712
vn 0.452603 0.000022 -0.891712
vn 0.452605 0.000001 -0.891711
vn 0.452605 -0.000000 -0.891711
vn -0.452611 0.000004 -0.891708
vn -0.452611 0.000004 -0.891708
vn -0.452611 -0.000000 -0.891708
vn -0.452611 0.000000 -0.891708
vn -0.310494 0.000000 -0.950575
vn -0.310494 0.000000 -0.950575
vn -0.310484 0.000000 -0.950578
vn -0.310484 0.000000 -0.950579
vn -0.950578 0.000000 -0.310486
vn -0.950578 0.000000 -0.310486
vn -0.950577 0.000000 -0.310488
vn -0.950577 0.000000 -0.310488
vn -0.891710 0.000017 -0.452607
vn -0.891710 0.000017 -0.452607
vn -0.891709 0.000000 -0.452610
vn -0.891709 -0.000000 -0.452610
vn -0.891711 0.000000 0.452605
vn -0.891711 0.000000 0.452605
vn -0.891712 0.000000 0.452604
vn -0.891712 0.000000 0.452604
vn 0.000000 -1.000000 0.000000
vn 0.000000 -1.000000 0.000000
vn 0.000000 -1.000000 0.000000
vn 0.000000 -1.000000 0.000000
vn 0.000000 -1.000000 0.000000
vn 0.000000 -1.000000 0.000000
vn 0.000000 -1.000000 -0.000000
vn 0.000000 -1.000000 -0.000000
vn 0.000000 -1.000000 0.000000
vn 0.000000 -1.000000 0.000000
vn 0.000000 -1.000000 0.000000
vn 0.000000 -1.000000 0.000000
vn 0.000000 -1.000000 -0.000000
vn 0.000000 -1.000000 -0.000000
vn 0.000000 -1.000000 -0.000000
vn 0.000000 -1.000000 0.000000
vn 0.000000 -1.000000 0.000000
vn 0.000000 -1.000000 0.000000
vn 0.000000 -1.000000 0.000000
vn 0.000000 -1.000000 0.000000
vn 0.000000 -1.000000 0.000000
vn -0.382679 0.000001 -0.923881
vn -0.707107 0.000001 -0.707107
vn -0.707106 0.000000 -0.707107
vn -0.382678 0.000000 -0.923882
vn 0.000003 0.000000 -1.000000
vn -0.000000 0.000000 -1.000000
vn 0.382679 0.000000 -0.923881
vn 0.382678 0.000000 -0.923882
vn 0.707107 0.000000 -0.707107
vn 0.707108 0.000000 -0.707106
vn 0.923882 0.000000 -0.382677
vn 0.923882 0.000000 -0.382679
vn 1.000000 0.000000 0.000000
vn 1.000000 0.000000 0.000000
vn 0.923882 0.000000 0.382678
vn 0.923882 0.000000 0.382677
vn 0.707107 0.000000 0.707107
vn 0.707106 0.000000 0.707107
vn 0.382679 0.000000 0.923881
vn 0.382678 0.000000 0.923882
vn 0.000000 0.000000 1.000000
vn 0.000000 0.000000 1.000000
vn -0.382679 0.000000 0.923881
vn -0.382678 0.000000 0.923882
vn -0.707107 0.000000 0.707107
vn -0.707106 0.000000 0.707107
vn -0.923882 0.000000 0.382678
vn -0.923882 0.000000 0.382677
vn -1.000000 0.000000 0.000000
vn -1.000000 0.000000 0.000000
vn -0.923882 0.000000 -0.382677
vn -0.923882 0.000000 -0.382679
vn -0.950577 0.000000 -0.310488
vn -0.950577 0.000000 -0.310488
vn -0.310484 0.000000 -0.950579
vn -0.310484 0.000000 -0.950579
vn -0.452611 -0.000000 -0.891708
vn -0.452611 -0.000000 -0.891708
vn 0.452605 -0.000001 -0.891711
vn 0.452606 -0.000001 -0.891711
vn 0.310484 0.000000 -0.950579
vn 0.310484 0.000000 -0.950579
vn 0.950578 0.000001 -0.310485
vn 0.950578 0.000001 -0.310485
vn 0.891711 0.000001 -0.452605
vn 0.891711 0.000001 -0.452605
vn 0.891714 0.000000 0.452599
vn 0.891714 0.000000 0.452599
vn 0.950577 0.000000 0.310488
vn 0.950577 0.000000 0.310488
vn 0.310487 0.000000 0.950578
vn 0.310487 0.000000 0.950578
vn 0.452604 0.000001 0.891712
vn 0.452604 0.000001 0.891712
vn -0.452596 0.000001 0.891716
vn -0.452596 0.000001 0.891716
vn -0.310493 0.000001 0.950576
vn -0.310493 0.000001 0.950576
vn -0.950579 0.000000 0.310483
vn -0.950579 0.000000 0.310483
vn -0.891712 0.000000 0.452604
vn -0.891712 0.000000 0.452604
vn -0.891709 -0.000001 -0.452610
vn -0.891709 -0.000001 -0.452610
s 1
g polySurface8 polySurface5
usemtl initialShadingGroup
f 1/1/1 2/2/2 91/3/3 92/4/4
f 2/2/2 3/5/5 90/6/6 91/3/3
f 3/5/5 4/7/7 89/8/8 90/6/6
f 4/9/7 5/10/9 88/11/10 89/12/8
f 5/10/9 6/13/11 87/14/12 88/11/10
f 6/13/11 7/15/13 102/16/14 87/14/12
f 7/15/13 8/17/15 101/18/16 102/16/14
f 8/17/15 9/19/17 100/20/18 101/18/16
f 9/19/17 10/21/19 99/22/20 100/20/18
f 10/21/19 11/23/21 98/24/22 99/22/20
f 11/23/21 12/25/23 97/26/24 98/24/22
f 12/25/23 13/27/25 96/28/26 97/26/24
f 13/27/25 14/29/27 95/30/28 96/28/26
f 14/29/27 15/31/29 94/32/30 95/30/28
f 15/31/29 16/33/31 93/34/32 94/32/30
f 16/33/31 1/1/1 92/4/4 93/34/32
s 2
f 49/35/33 50/36/34 51/37/35
f 50/36/34 52/38/36 51/37/35
f 52/38/36 53/39/37 51/37/35
f 53/40/37 54/41/38 51/37/35
f 54/41/38 55/42/39 51/37/35
f 55/42/39 56/43/40 51/37/35
f 56/43/40 57/44/41 51/37/35
f 57/44/41 58/45/42 51/37/35
f 58/45/42 59/46/43 51/37/35
f 59/46/43 60/47/44 51/37/35
f 60/47/44 61/48/45 51/37/35
f 61/48/45 62/49/46 51/37/35
f 62/49/46 63/50/47 51/37/35
f 63/50/47 64/51/48 51/37/35
f 64/51/48 65/52/49 51/37/35
f 65/52/49 49/35/33 51/37/35
s off
f 17/53/50 18/54/51 34/55/52 33/56/53
f 18/54/54 19/57/55 35/58/56 34/55/57
f 19/57/58 20/59/59 36/60/60 35/58/61
f 20/61/62 21/62/63 37/63/64 36/64/65
f 21/62/66 22/65/67 38/66/68 37/63/69
f 22/65/70 23/67/71 39/68/72 38/66/73
f 23/67/74 24/69/75 40/70/76 39/68/77
f 24/69/78 25/71/79 41/72/80 40/70/81
f 25/71/82 26/73/83 42/74/84 41/72/85
f 26/73/86 27/75/87 43/76/88 42/74/89
f 27/75/90 28/77/91 44/78/92 43/76/93
f 28/77/94 29/79/95 45/80/96 44/78/97
f 29/79/98 30/81/99 46/82/100 45/80/101
f 30/81/102 31/83/103 47/84/104 46/82/105
f 31/83/106 32/85/107 48/86/108 47/84/109
f 32/85/110 17/53/111 33/56/112 48/86/113
s 3
f 33/87/114 34/88/115 116/89/116 117/90/117
s 4
f 34/88/118 35/91/119 115/92/120 116/89/121
s 5
f 35/91/122 36/93/123 114/94/124 115/92/125
s 6
f 36/95/126 37/96/127 113/97/128 114/98/129
s 7
f 37/96/130 38/99/131 112/100/132 113/97/133
s 8
f 38/99/134 39/101/135 111/102/136 112/100/137
s 9
f 39/101/138 40/103/139 110/104/140 111/102/141
s 10
f 40/103/142 41/105/143 109/106/144 110/104/145
s 11
f 41/105/146 42/107/147 108/108/148 109/106/149
s 12
f 42/107/150 43/109/151 107/110/152 108/108/153
s 13
f 43/109/154 44/111/155 106/112/156 107/110/157
s 14
f 44/111/158 45/113/159 105/114/160 106/112/161
s 15
f 45/113/162 46/115/163 104/116/164 105/114/165
s 16
f 46/115/166 47/117/167 103/118/168 104/116/169
s 17
f 47/117/170 48/119/171 118/120/172 103/118/173
s 18
f 48/119/174 33/87/175 117/90/176 118/120/177
s 19
f 12/121/178 67/122/179 14/123/180 13/124/181
f 69/125/182 1/126/183 16/127/184 66/128/185
f 10/129/186 67/122/179 12/121/178 11/130/187
f 7/131/188 69/125/182 66/128/185 8/132/189
f 9/133/190 68/134/191 67/122/179 10/129/186
f 14/123/180 67/122/179 68/134/191 15/135/192
f 8/132/189 66/128/185 68/134/191 9/133/190
f 15/135/192 68/134/191 66/128/185 16/127/184
f 4/136/193 70/137/194 6/138/195 5/139/196
f 2/140/197 70/137/194 4/136/193 3/141/198
f 2/140/197 1/126/183 69/125/182 70/137/194
f 6/138/195 70/137/194 69/125/182 7/131/188
s 1
f 72/142/199 71/143/200 22/144/201 21/145/202
f 73/146/203 72/142/199 21/145/202 20/147/204
f 74/148/205 73/149/203 20/150/204 19/151/206
f 75/152/207 74/148/205 19/151/206 18/153/208
f 76/154/209 75/152/207 18/153/208 17/155/210
f 77/156/211 76/154/209 17/155/210 32/157/212
f 78/158/213 77/156/211 32/157/212 31/159/214
f 79/160/215 78/158/213 31/159/214 30/161/216
f 80/162/217 79/160/215 30/161/216 29/163/218
f 81/164/219 80/162/217 29/163/218 28/165/220
f 82/166/221 81/164/219 28/165/220 27/167/222
f 83/168/223 82/166/221 27/167/222 26/169/224
f 84/170/225 83/168/223 26/169/224 25/171/226
f 85/172/227 84/170/225 25/171/226 24/173/228
f 86/174/229 85/172/227 24/173/228 23/175/230
f 71/143/200 86/174/229 23/175/230 22/144/201
f 88/11/10 87/14/12 71/143/200 72/142/199
f 89/12/8 88/11/10 72/142/199 73/146/203
f 90/6/6 89/8/8 73/149/203 74/148/205
f 91/3/3 90/6/6 74/148/205 75/152/207
f 92/4/4 91/3/3 75/152/207 76/154/209
f 93/34/32 92/4/4 76/154/209 77/156/211
f 94/32/30 93/34/32 77/156/211 78/158/213
f 95/30/28 94/32/30 78/158/213 79/160/215
f 96/28/26 95/30/28 79/160/215 80/162/217
f 97/26/24 96/28/26 80/162/217 81/164/219
f 98/24/22 97/26/24 81/164/219 82/166/221
f 99/22/20 98/24/22 82/166/221 83/168/223
f 100/20/18 99/22/20 83/168/223 84/170/225
f 101/18/16 100/20/18 84/170/225 85/172/227
f 102/16/14 101/18/16 85/172/227 86/174/229
f 87/14/12 102/16/14 86/174/229 71/143/200
s 16
f 104/116/169 103/118/168 64/176/231 63/177/232
s 15
f 105/114/165 104/116/164 63/177/233 62/178/234
s 14
f 106/112/161 105/114/160 62/178/235 61/179/236
s 13
f 107/110/157 106/112/156 61/179/237 60/180/238
s 12
f 108/108/153 107/110/152 60/180/239 59/181/240
s 11
f 109/106/149 108/108/148 59/181/241 58/182/242
s 10
f 110/104/145 109/106/144 58/182/243 57/183/244
s 9
f 111/102/141 110/104/140 57/183/245 56/184/246
s 8
f 112/100/137 111/102/136 56/184/247 55/185/248
s 7
f 113/97/133 112/100/132 55/185/249 54/186/250
s 6
f 114/98/129 113/97/128 54/186/251 53/187/252
s 5
f 115/92/125 114/94/124 53/188/253 52/189/254
s 4
f 116/89/121 115/92/120 52/189/255 50/190/256
s 3
f 117/90/117 116/89/116 50/190/257 49/191/258
s 18
f 118/120/177 117/90/176 49/191/259 65/192/260
s 17
f 103/118/173 118/120/172 65/192/261 64/176/262
