# This file uses centimeters as units for non-parametric coordinates.

mtllib button.mtl
g default
v -7.640342 0.594956 -0.704131
v -7.650540 0.594956 -0.711542
v -7.663152 0.594956 -0.711542
v -7.673351 0.594956 -0.704131
v -7.677246 0.594956 -0.692141
v -7.673351 0.594956 -0.680151
v -7.663152 0.594956 -0.672741
v -7.650540 0.594956 -0.672741
v -7.640342 0.594956 -0.680151
v -7.636446 0.594956 -0.692141
v -7.632091 0.594956 -0.710126
v -7.647389 0.594956 -0.721242
v -7.666303 0.594956 -0.721242
v -7.681602 0.594956 -0.710126
v -7.687445 0.594956 -0.692141
v -7.681602 0.594956 -0.674157
v -7.666303 0.594956 -0.663041
v -7.647389 0.594956 -0.663041
v -7.632091 0.594956 -0.674157
v -7.626248 0.594956 -0.692141
v -7.632091 0.605305 -0.710126
v -7.647389 0.605305 -0.721242
v -7.666303 0.605305 -0.721242
v -7.681602 0.605305 -0.710126
v -7.687445 0.605305 -0.692141
v -7.681602 0.605305 -0.674157
v -7.666303 0.605305 -0.663041
v -7.647389 0.605305 -0.663041
v -7.632091 0.605305 -0.674157
v -7.626248 0.605305 -0.692141
v -7.640342 0.612172 -0.704131
v -7.650540 0.612172 -0.711542
v -7.663152 0.612172 -0.711542
v -7.673351 0.612172 -0.704131
v -7.677246 0.612172 -0.692141
v -7.673351 0.612172 -0.680151
v -7.663152 0.612172 -0.672741
v -7.650540 0.612172 -0.672741
v -7.640342 0.612172 -0.680151
v -7.636446 0.612172 -0.692141
v -7.648593 0.612172 -0.698137
v -7.653694 0.612172 -0.701841
v -7.659999 0.612172 -0.701841
v -7.665099 0.612172 -0.698137
v -7.667047 0.612172 -0.692141
v -7.665099 0.612172 -0.686146
v -7.659999 0.612172 -0.682441
v -7.653694 0.612172 -0.682441
v -7.648593 0.612172 -0.686146
v -7.646646 0.612172 -0.692141
v -7.656846 0.612172 -0.692141
v -7.663152 0.594956 -0.692141
v -7.650540 0.594956 -0.692141
vt 0.584273 0.095022
vt 0.532189 0.057182
vt 0.467811 0.057182
vt 0.415727 0.095022
vt 0.395833 0.156250
vt 0.415727 0.217478
vt 0.467811 0.255318
vt 0.532189 0.255318
vt 0.584273 0.217478
vt 0.604167 0.156250
vt 0.626409 0.064409
vt 0.548284 0.007647
vt 0.451716 0.007647
vt 0.373591 0.064409
vt 0.343750 0.156250
vt 0.373591 0.248091
vt 0.451716 0.304853
vt 0.548284 0.304853
vt 0.626409 0.248091
vt 0.656250 0.156250
vt 0.169175 0.469345
vt 0.235340 0.469345
vt 0.301505 0.469345
vt 0.367670 0.469345
vt 0.433835 0.469345
vt 0.500000 0.469345
vt 0.566165 0.469345
vt 0.632330 0.469345
vt 0.698495 0.469345
vt 0.764660 0.469345
vt 0.830825 0.469345
vt 0.169175 0.531595
vt 0.235340 0.531595
vt 0.301505 0.531595
vt 0.367670 0.531595
vt 0.433835 0.531595
vt 0.500000 0.531595
vt 0.566165 0.531595
vt 0.632330 0.531595
vt 0.698495 0.531595
vt 0.764660 0.531595
vt 0.830825 0.531595
vt 0.630172 0.655323
vt 0.552047 0.598562
vt 0.455479 0.598562
vt 0.377354 0.655323
vt 0.347513 0.747164
vt 0.377354 0.839006
vt 0.455479 0.895767
vt 0.552047 0.895767
vt 0.630172 0.839006
vt 0.660013 0.747164
vt 0.588036 0.685937
vt 0.535952 0.648096
vt 0.471574 0.648096
vt 0.419490 0.685937
vt 0.399596 0.747164
vt 0.419490 0.808392
vt 0.471574 0.846233
vt 0.535952 0.846233
vt 0.588036 0.808392
vt 0.607930 0.747164
vt 0.545899 0.716551
vt 0.519858 0.697630
vt 0.487668 0.697630
vt 0.461627 0.716551
vt 0.451680 0.747164
vt 0.461627 0.777778
vt 0.487668 0.796699
vt 0.519858 0.796699
vt 0.545899 0.777778
vt 0.555846 0.747164
vt 0.503763 0.740914
vt 0.467811 0.156250
vt 0.532189 0.156250
vn 0.000000 -1.000000 0.000000
vn 0.000000 -1.000000 0.000000
vn 0.000000 -1.000000 0.000000
vn 0.000000 -1.000000 0.000000
vn 0.000000 -1.000000 0.000000
vn 0.000000 -1.000000 0.000000
vn 0.000000 -1.000000 0.000000
vn 0.000000 -1.000000 0.000000
vn 0.000000 -1.000000 -0.000000
vn 0.000000 -1.000000 -0.000000
vn 0.000000 -1.000000 -0.000001
vn 0.000000 -1.000000 -0.000001
vn 0.000000 -1.000000 0.000000
vn 0.000000 -1.000000 0.000000
vn 0.000000 -1.000000 -0.000001
vn 0.000000 -1.000000 -0.000001
vn 0.000000 -1.000000 -0.000001
vn 0.000000 -1.000000 -0.000001
vn 0.000000 -1.000000 0.000000
vn 0.000000 -1.000000 0.000000
vn 0.587823 0.000000 -0.808990
vn 0.587823 0.000000 -0.808990
vn 0.587823 0.000000 -0.808990
vn 0.587823 0.000000 -0.808990
vn -0.000007 0.000000 -1.000000
vn -0.000007 0.000000 -1.000000
vn -0.000007 0.000000 -1.000000
vn -0.000007 0.000000 -1.000000
vn -0.587788 0.000000 -0.809015
vn -0.587788 0.000000 -0.809015
vn -0.587788 0.000000 -0.809015
vn -0.587788 0.000000 -0.809015
vn -0.951078 0.000000 -0.308950
vn -0.951078 0.000000 -0.308950
vn -0.951078 0.000000 -0.308950
vn -0.951078 0.000000 -0.308950
vn -0.951074 0.000000 0.308962
vn -0.951074 0.000000 0.308962
vn -0.951074 0.000000 0.308962
vn -0.951074 0.000000 0.308962
vn -0.587797 0.000000 0.809009
vn -0.587797 0.000000 0.809009
vn -0.587797 0.000000 0.809009
vn -0.587797 0.000000 0.809009
vn 0.000000 0.000000 1.000000
vn 0.000000 0.000000 1.000000
vn 0.000000 0.000000 1.000000
vn 0.000000 0.000000 1.000000
vn 0.587827 0.000000 0.808987
vn 0.587827 0.000000 0.808987
vn 0.587827 0.000000 0.808987
vn 0.587827 0.000000 0.808987
vn 0.951054 0.000000 0.309024
vn 0.951054 0.000000 0.309024
vn 0.951054 0.000000 0.309024
vn 0.951054 0.000000 0.309024
vn 0.951058 0.000000 -0.309012
vn 0.951058 0.000000 -0.309012
vn 0.951058 0.000000 -0.309012
vn 0.951058 0.000000 -0.309012
vn 0.451845 0.829502 -0.328271
vn 0.172563 0.829517 -0.531153
vn 0.132994 0.902648 -0.409316
vn 0.348205 0.902641 -0.252967
vn -0.172561 0.829517 -0.531155
vn -0.132989 0.902645 -0.409324
vn -0.451837 0.829514 -0.328252
vn -0.348204 0.902643 -0.252960
vn -0.558494 0.829508 -0.000001
vn -0.430394 0.902641 0.000000
vn -0.451839 0.829511 0.328257
vn -0.348203 0.902642 0.252966
vn -0.172567 0.829510 0.531163
vn -0.132994 0.902642 0.409328
vn 0.172570 0.829508 0.531164
vn 0.132997 0.902643 0.409325
vn 0.451852 0.829495 0.328279
vn 0.348204 0.902640 0.252973
vn 0.558509 0.829498 -0.000000
vn 0.430410 0.902633 0.000000
vn 0.000000 1.000000 0.000001
vn 0.000000 1.000000 0.000001
vn 0.000000 1.000000 -0.000000
vn 0.000000 1.000000 0.000000
vn 0.000000 1.000000 0.000000
vn 0.000000 1.000000 -0.000001
vn 0.000000 1.000000 -0.000001
vn 0.000000 1.000000 -0.000000
vn 0.000000 1.000000 -0.000001
vn 0.000000 1.000000 -0.000001
vn 0.000000 1.000000 0.000000
vn 0.000000 -1.000000 0.000000
vn 0.000000 -1.000000 0.000000
vn 0.000000 -1.000000 0.000000
vn 0.000000 -1.000000 0.000000
vn 0.000000 -1.000000 0.000000
vn 0.000000 -1.000000 0.000000
vn 0.000000 -1.000000 -0.000000
vn 0.000000 -1.000000 -0.000000
vn 0.000000 -1.000000 0.000000
vn 0.000000 -1.000000 0.000000
vn 0.000000 -1.000000 0.000000
vn 0.000000 -1.000000 0.000000
vn 0.000000 -1.000000 0.000000
vn 0.000000 -1.000000 0.000000
vn 0.000000 -1.000000 0.000000
vn 0.000000 -1.000000 0.000000
vn 0.000000 -1.000000 0.000000
vn 0.000000 -1.000000 0.000000
s 1
g pCylinder9
usemtl initialShadingGroup
f 1/1/1 2/2/2 12/12/3 11/11/4
f 2/2/2 3/3/5 13/13/6 12/12/3
f 3/3/5 4/4/7 14/14/8 13/13/6
f 4/4/7 5/5/9 15/15/10 14/14/8
f 5/5/9 6/6/11 16/16/12 15/15/10
f 6/6/11 7/7/13 17/17/14 16/16/12
f 7/7/13 8/8/15 18/18/16 17/17/14
f 8/8/15 9/9/17 19/19/18 18/18/16
f 9/9/17 10/10/19 20/20/20 19/19/18
f 10/10/19 1/1/1 11/11/4 20/20/20
s off
f 11/21/21 12/22/22 22/33/23 21/32/24
f 12/22/25 13/23/26 23/34/27 22/33/28
f 13/23/29 14/24/30 24/35/31 23/34/32
f 14/24/33 15/25/34 25/36/35 24/35/36
f 15/25/37 16/26/38 26/37/39 25/36/40
f 16/26/41 17/27/42 27/38/43 26/37/44
f 17/27/45 18/28/46 28/39/47 27/38/48
f 18/28/49 19/29/50 29/40/51 28/39/52
f 19/29/53 20/30/54 30/41/55 29/40/56
f 20/30/57 11/31/58 21/42/59 30/41/60
s 2
f 21/51/61 22/50/62 32/60/63 31/61/64
f 22/50/62 23/49/65 33/59/66 32/60/63
f 23/49/65 24/48/67 34/58/68 33/59/66
f 24/48/67 25/47/69 35/57/70 34/58/68
f 25/47/69 26/46/71 36/56/72 35/57/70
f 26/46/71 27/45/73 37/55/74 36/56/72
f 27/45/73 28/44/75 38/54/76 37/55/74
f 28/44/75 29/43/77 39/53/78 38/54/76
f 29/43/77 30/52/79 40/62/80 39/53/78
f 30/52/79 21/51/61 31/61/64 40/62/80
f 31/61/64 32/60/63 42/70/81 41/71/82
f 32/60/63 33/59/66 43/69/83 42/70/81
f 33/59/66 34/58/68 44/68/84 43/69/83
f 34/58/68 35/57/70 45/67/85 44/68/84
f 35/57/70 36/56/72 46/66/86 45/67/85
f 36/56/72 37/55/74 47/65/87 46/66/86
f 37/55/74 38/54/76 48/64/88 47/65/87
f 38/54/76 39/53/78 49/63/89 48/64/88
f 39/53/78 40/62/80 50/72/90 49/63/89
f 40/62/80 31/61/64 41/71/82 50/72/90
f 41/71/82 42/70/81 51/73/91
f 42/70/81 43/69/83 51/73/91
f 43/69/83 44/68/84 51/73/91
f 44/68/84 45/67/85 51/73/91
f 45/67/85 46/66/86 51/73/91
f 46/66/86 47/65/87 51/73/91
f 47/65/87 48/64/88 51/73/91
f 48/64/88 49/63/89 51/73/91
f 49/63/89 50/72/90 51/73/91
f 50/72/90 41/71/82 51/73/91
s 3
f 52/74/92 53/75/93 8/8/94 7/7/95
s 4
f 5/5/96 52/74/97 7/7/98 6/6/99
s 5
f 53/75/100 10/10/101 9/9/102 8/8/103
s 4
f 4/4/104 3/3/105 52/74/97 5/5/96
s 3
f 3/3/106 2/2/107 53/75/93 52/74/92
s 5
f 2/2/108 1/1/109 10/10/101 53/75/100
