# This file uses centimeters as units for non-parametric coordinates.

mtllib craneTrack.mtl
g default
v 18.947526 11.772091 -3.345586
v 18.947526 11.772091 -3.522279
v 18.947526 11.772091 -3.698972
v 18.947526 11.772091 -3.875664
v 18.947526 11.639571 -3.345586
v 18.947526 11.639571 -3.522279
v 18.947526 11.639571 -3.698972
v 18.947526 11.639571 -3.875664
v 18.947526 11.535790 -3.345586
v 18.947526 11.512920 -3.522279
v 18.947526 11.512920 -3.698972
v 18.947526 11.535790 -3.875664
v 19.020144 11.497627 -3.345586
v 19.020144 11.431916 -3.522279
v 19.020144 11.431916 -3.698972
v 19.020144 11.497627 -3.875665
v 19.020144 11.417237 -3.345586
v 19.020144 11.332458 -3.522279
v 19.020144 11.332458 -3.698972
v 19.020144 11.417237 -3.875665
v 19.124219 11.417237 -3.345586
v 19.124219 11.332458 -3.522279
v 19.124219 11.332458 -3.698972
v 19.124219 11.417237 -3.875664
v 19.300912 11.417237 -3.345586
v 19.300912 11.332458 -3.522279
v 19.300912 11.332458 -3.698972
v 19.300912 11.417237 -3.875665
v 19.404987 11.417237 -3.345586
v 19.404987 11.332458 -3.522279
v 19.404987 11.332458 -3.698972
v 19.404987 11.417237 -3.875665
v 19.404987 11.497627 -3.345586
v 19.404987 11.431916 -3.522279
v 19.404987 11.431916 -3.698972
v 19.404987 11.497627 -3.875665
v 19.477605 11.535790 -3.345586
v 19.477605 11.512920 -3.522279
v 19.477605 11.512920 -3.698972
v 19.477605 11.535790 -3.875664
v 19.477605 11.639571 -3.345586
v 19.477605 11.639571 -3.522279
v 19.477605 11.639571 -3.698972
v 19.477605 11.639571 -3.875664
v 19.477605 11.772091 -3.345586
v 19.477605 11.772091 -3.522279
v 19.477605 11.772091 -3.698972
v 19.477605 11.772091 -3.875664
v 19.300912 11.772091 -3.345586
v 19.300912 11.772091 -3.522279
v 19.300912 11.772091 -3.698972
v 19.300912 11.772091 -3.875665
v 19.124219 11.772091 -3.345586
v 19.124219 11.772091 -3.522279
v 19.124219 11.772091 -3.698972
v 19.124219 11.772091 -3.875664
v 19.300912 11.639571 -3.875665
v 19.124219 11.639571 -3.875664
v 19.300912 11.535790 -3.875665
v 19.124219 11.535790 -3.875664
v 19.300912 11.497627 -3.875665
v 19.124219 11.497627 -3.875664
v 19.300912 11.639571 -3.345586
v 19.124219 11.639571 -3.345586
v 19.300912 11.535790 -3.345586
v 19.124219 11.535790 -3.345586
v 19.300912 11.497626 -3.345586
v 19.124219 11.497626 -3.345586
v 19.164254 11.553219 -3.465689
v 19.164254 11.550794 -3.562313
v 19.260877 11.550794 -3.562313
v 19.260877 11.553219 -3.465689
v 19.164254 11.550794 -3.658937
v 19.260877 11.550794 -3.658937
v 19.164254 11.553219 -3.755561
v 19.260877 11.553219 -3.755561
v 19.260877 11.634513 -3.755561
v 19.164254 11.634513 -3.755561
v 19.260877 11.606606 -3.755561
v 19.164254 11.606606 -3.755561
v 19.260877 11.578700 -3.755561
v 19.164254 11.578700 -3.755561
v 19.260877 11.634513 -3.465689
v 19.164254 11.634513 -3.465689
v 19.164254 11.606606 -3.465689
v 19.260877 11.606606 -3.465689
v 19.164254 11.578700 -3.465689
v 19.260877 11.578700 -3.465689
v 18.888641 11.762819 -3.286701
v 18.888641 11.762819 -3.502650
v 18.888641 11.648842 -3.502650
v 18.888641 11.648842 -3.286701
v 18.888641 11.762819 -3.718600
v 18.888641 11.648842 -3.718600
v 18.888641 11.762819 -3.934550
v 18.888641 11.648842 -3.934550
v 19.536490 11.648842 -3.286701
v 19.536490 11.648842 -3.502650
v 19.536490 11.762819 -3.502650
v 19.536490 11.762819 -3.286701
v 19.536490 11.648842 -3.718600
v 19.536490 11.762819 -3.718600
v 19.536490 11.648842 -3.934550
v 19.536490 11.762819 -3.934550
v 19.320540 11.762819 -3.934550
v 19.320540 11.648842 -3.934550
v 19.104591 11.762819 -3.934549
v 19.104591 11.648842 -3.934549
v 19.320540 11.762819 -3.286701
v 19.320540 11.648842 -3.286701
v 19.104591 11.762819 -3.286700
v 19.104591 11.648842 -3.286700
vt 0.282789 0.046380
vt 0.203751 0.130475
vt 0.159331 0.088874
vt 0.324326 0.001849
vt 0.124991 0.214721
vt 0.080498 0.173205
vt 0.046370 0.299238
vt 0.004714 0.343681
vt 0.369077 0.000000
vt 0.128919 0.074775
vt 0.708775 0.089259
vt 0.618044 0.090411
vt 0.064391 0.143811
vt 0.804948 0.088606
vt 0.000000 0.212940
vt 0.896387 0.088354
vt 0.711098 0.146478
vt 0.608089 0.131576
vt 0.803627 0.145935
vt 0.906448 0.129614
vt 0.714241 0.200724
vt 0.627302 0.167645
vt 0.800760 0.200248
vt 0.889190 0.166818
vt 0.309085 0.597149
vt 0.241063 0.611604
vt 0.379253 0.580666
vt 0.444413 0.553646
vt 0.278364 0.717242
vt 0.343422 0.707249
vt 0.358497 0.755324
vt 0.296039 0.780079
vt 0.404690 0.686187
vt 0.419759 0.734264
vt 0.467161 0.661448
vt 0.484816 0.724295
vt 0.318806 0.887871
vt 0.383933 0.860834
vt 0.658645 0.434745
vt 0.567701 0.460586
vt 0.454072 0.844361
vt 0.744892 0.441594
vt 0.522067 0.829948
vt 0.828705 0.481914
vt 0.651192 0.488625
vt 0.547361 0.496203
vt 0.743427 0.495916
vt 0.844804 0.519474
vt 0.645031 0.545645
vt 0.553901 0.538169
vt 0.740914 0.553131
vt 0.831421 0.559649
vt 0.517633 0.438198
vt 0.582025 0.369069
vt 0.453105 0.507234
vt 0.212947 0.582010
vt 0.577311 0.238329
vt 0.501526 0.408804
vt 0.457034 0.367288
vt 0.535654 0.282771
vt 0.422694 0.493135
vt 0.378273 0.451534
vt 0.257698 0.580160
vt 0.299235 0.535629
vt 0.490909 0.284278
vt 0.426600 0.353217
vt 0.357686 0.288762
vt 0.422117 0.219821
vt 0.362186 0.422116
vt 0.293251 0.357667
vt 0.297730 0.490882
vt 0.228797 0.426599
vt 0.288773 0.224343
vt 0.353228 0.155410
vt 0.224338 0.293248
vt 0.159908 0.362188
vt 0.219838 0.159893
vt 0.284295 0.091127
vt 0.155425 0.228792
vt 0.091116 0.297732
vt 0.214723 0.457027
vt 0.173205 0.501516
vt 0.130486 0.378277
vt 0.088889 0.422706
vt 0.143808 0.517621
vt 0.543112 0.785594
vt 0.515109 0.659796
vt 0.525940 0.702164
vt 0.511434 0.709154
vt 0.498719 0.660996
vt 0.074799 0.453125
vt 0.485721 0.579597
vt 0.533835 0.799433
vt 0.497438 0.716685
vt 0.482405 0.661655
vt 0.470448 0.572806
vt 0.451539 0.203732
vt 0.493135 0.159304
vt 0.367302 0.124983
vt 0.408820 0.080494
vt 0.507226 0.128885
vt 0.277504 0.861936
vt 0.248098 0.781758
vt 0.237254 0.739403
vt 0.251754 0.732401
vt 0.264486 0.780547
vt 0.438217 0.064389
vt 0.220030 0.655982
vt 0.292775 0.868720
vt 0.265746 0.724860
vt 0.280797 0.779878
vt 0.229304 0.642133
vt 0.535416 0.067355
vt 0.497697 0.032104
vt 0.182677 0.691323
vt 0.452047 0.513053
vt 0.084327 0.549905
vt 0.046608 0.514655
vt 1.000000 0.104780
vt 0.580487 0.750287
vt 0.594575 0.043617
vt 0.529661 0.583709
vt 0.916698 0.040931
vt 0.850877 0.608245
vt 0.741371 0.622810
vt 0.634420 0.615633
vt 0.809617 0.017975
vt 0.702450 0.019867
vt 0.566018 0.173401
vt 0.595967 0.212571
vt 0.507527 0.452277
vt 0.543211 0.417026
vt 0.551443 0.156156
vt 0.492632 0.468458
vt 0.517068 0.110019
vt 0.226781 0.851120
vt 0.949851 0.170016
vt 0.917276 0.208151
vt 0.890251 0.481347
vt 0.863737 0.439814
vt 0.963325 0.152638
vt 0.903323 0.499744
vt 0.536449 0.590438
vt 0.933702 0.548593
vt 0.758788 0.387935
vt 0.652956 0.379154
vt 0.811142 0.255154
vt 0.704960 0.255369
vt 0.001844 0.257692
vt 0.005889 0.388461
vt 0.238355 0.004715
vt 0.193578 0.005883
vt 0.580180 0.324317
vt 0.576135 0.193548
vt 0.343669 0.577294
vt 0.388447 0.576127
vn -1.000000 0.000000 0.000000
vn -1.000000 0.000000 0.000000
vn -1.000000 0.000000 0.000000
vn -1.000000 0.000000 0.000000
vn -1.000000 0.000000 0.000000
vn -1.000000 0.000000 0.000000
vn -1.000000 0.000000 0.000000
vn -1.000000 0.000000 0.000000
vn -1.000000 0.000000 0.000000
vn -1.000000 0.000000 0.000000
vn -0.928269 -0.368851 0.047596
vn -0.929833 -0.356939 0.089472
vn -1.000000 0.000000 0.000000
vn -0.928269 -0.368851 -0.047596
vn -1.000000 0.000000 0.000000
vn -0.929833 -0.356940 -0.089472
vn -0.930535 -0.363850 0.041443
vn -0.853445 -0.505542 0.126721
vn -0.930535 -0.363850 -0.041443
vn -0.853446 -0.505542 -0.126721
vn -1.000000 0.000000 0.000000
vn -1.000000 0.000000 0.000000
vn -1.000000 0.000000 0.000000
vn -1.000000 0.000000 0.000000
vn -0.000001 -0.901592 0.432587
vn -0.000001 -0.972409 0.233283
vn -0.000001 -0.972409 0.233283
vn -0.000001 -0.901592 0.432587
vn 0.000000 -0.972409 -0.233283
vn 0.000000 -0.972409 -0.233283
vn 0.000000 -0.901592 -0.432587
vn 0.000000 -0.901592 -0.432587
vn 0.000000 -0.999685 0.025095
vn 0.000000 -0.999921 0.012550
vn 0.000000 -0.999921 0.012550
vn 0.000000 -0.999685 0.025095
vn 0.000000 -0.999921 -0.012550
vn 0.000000 -0.999921 -0.012550
vn 0.000000 -0.999685 -0.025095
vn 0.000000 -0.999685 -0.025095
vn 0.000001 -0.901592 0.432587
vn 0.000001 -0.972409 0.233283
vn 0.000001 -0.972409 0.233282
vn 0.000001 -0.901592 0.432587
vn 0.000000 -0.972409 -0.233283
vn 0.000000 -0.972409 -0.233283
vn 0.000000 -0.901592 -0.432587
vn 0.000000 -0.901592 -0.432587
vn 1.000000 0.000000 0.000000
vn 1.000000 0.000000 0.000000
vn 0.930535 -0.363851 0.041443
vn 0.853445 -0.505543 0.126721
vn 1.000000 0.000000 0.000000
vn 0.930535 -0.363851 -0.041443
vn 1.000000 0.000000 0.000000
vn 0.853445 -0.505543 -0.126721
vn 0.928269 -0.368851 0.047596
vn 0.929833 -0.356939 0.089471
vn 0.928269 -0.368851 -0.047595
vn 0.929833 -0.356940 -0.089472
vn 1.000000 0.000000 0.000000
vn 1.000000 0.000000 0.000000
vn 1.000000 0.000000 0.000000
vn 1.000000 0.000000 0.000000
vn 1.000000 0.000000 0.000000
vn 1.000000 0.000000 0.000000
vn 1.000000 0.000000 0.000000
vn 1.000000 0.000000 0.000000
vn 1.000000 0.000000 0.000000
vn 1.000000 0.000000 0.000000
vn 1.000000 0.000000 0.000000
vn 1.000000 0.000000 0.000000
vn 0.000000 1.000000 0.000000
vn 0.000000 1.000000 0.000000
vn 0.000000 1.000000 0.000000
vn 0.000000 1.000000 0.000000
vn 0.000000 1.000000 0.000000
vn 0.000000 1.000000 0.000000
vn 0.000000 1.000000 0.000000
vn 0.000000 1.000000 0.000000
vn 0.000000 1.000000 0.000000
vn 0.000000 1.000000 0.000000
vn 0.000000 1.000000 0.000000
vn 0.000000 1.000000 0.000000
vn 0.000000 1.000000 0.000000
vn 0.000000 1.000000 0.000000
vn 0.000000 1.000000 0.000000
vn 0.000000 1.000000 0.000000
vn -0.000001 0.000000 -1.000000
vn 0.000000 0.000000 -1.000000
vn 0.000000 0.000000 -1.000000
vn -0.000001 0.000000 -1.000000
vn 0.000000 0.000000 -1.000000
vn 0.000000 0.000000 -1.000000
vn 0.000001 0.000000 -1.000000
vn 0.000001 0.000000 -1.000000
vn 0.000002 0.000000 -1.000000
vn 0.000002 0.000000 -1.000000
vn 0.000001 0.000000 -1.000000
vn 0.000001 0.000001 -1.000000
vn 0.000003 0.000000 -1.000000
vn 0.000003 0.000000 -1.000000
vn 0.000003 0.000000 -1.000000
vn 0.000003 0.000000 -1.000000
vn 0.000000 0.000000 -1.000000
vn 0.000000 0.000000 -1.000000
vn 0.000000 0.000001 -1.000000
vn 0.000000 0.000000 -1.000000
vn 0.000000 0.000001 -1.000000
vn 0.000000 0.000001 -1.000000
vn 0.000001 -0.000002 -1.000000
vn 0.000001 -0.000002 -1.000000
vn 0.000002 0.000002 -1.000000
vn 0.000002 0.000002 -1.000000
vn 0.000000 0.000000 -1.000000
vn 0.000000 0.000000 -1.000000
vn 0.000000 -0.000005 -1.000000
vn 0.000000 -0.000005 -1.000000
vn 0.000004 0.000000 -1.000000
vn 0.000004 0.000000 -1.000000
vn 0.000000 0.000000 1.000000
vn 0.000001 0.000000 1.000000
vn 0.000001 0.000000 1.000000
vn 0.000000 0.000000 1.000000
vn 0.000000 0.000000 1.000000
vn 0.000000 0.000000 1.000000
vn -0.000001 0.000000 1.000000
vn -0.000001 0.000000 1.000000
vn 0.000000 0.000000 1.000000
vn 0.000000 0.000000 1.000000
vn 0.000001 -0.000001 1.000000
vn 0.000000 -0.000000 1.000000
vn 0.000000 0.000000 1.000000
vn 0.000000 0.000000 1.000000
vn 0.000000 0.000000 1.000000
vn 0.000000 0.000000 1.000000
vn 0.000000 0.000000 1.000000
vn 0.000000 0.000000 1.000000
vn -0.000000 -0.000000 1.000000
vn -0.000001 -0.000001 1.000000
vn 0.000003 -0.000002 1.000000
vn 0.000003 -0.000002 1.000000
vn 0.000000 0.000000 1.000000
vn 0.000000 0.000000 1.000000
vn -0.000003 -0.000002 1.000000
vn -0.000003 -0.000002 1.000000
vn 0.000004 0.000000 1.000000
vn 0.000004 0.000000 1.000000
vn 0.000000 0.000000 1.000000
vn 0.000000 0.000000 1.000000
vn -0.000004 0.000000 1.000000
vn -0.000004 0.000000 1.000000
vn 0.979180 -0.193389 0.061702
vn 0.979180 -0.193389 0.061702
vn 0.979180 -0.193389 0.061702
vn 0.979180 -0.193389 0.061702
vn -0.979180 -0.193390 0.061702
vn -0.979180 -0.193390 0.061702
vn -0.979180 -0.193390 0.061702
vn -0.979180 -0.193390 0.061702
vn 0.983601 -0.180356 0.000000
vn 0.983601 -0.180356 0.000000
vn 0.983601 -0.180356 0.000000
vn 0.983601 -0.180356 0.000000
vn -0.983601 -0.180356 0.000000
vn -0.983601 -0.180356 0.000000
vn -0.983601 -0.180356 0.000000
vn -0.983601 -0.180356 0.000000
vn 0.979180 -0.193390 -0.061702
vn 0.979180 -0.193390 -0.061702
vn 0.979180 -0.193390 -0.061702
vn 0.979180 -0.193390 -0.061702
vn -0.979180 -0.193390 -0.061702
vn -0.979180 -0.193390 -0.061702
vn -0.979180 -0.193390 -0.061702
vn -0.979180 -0.193390 -0.061702
vn 0.000000 -0.999114 -0.042085
vn 0.000000 -0.999114 -0.042085
vn 0.000000 -0.999114 -0.042085
vn 0.000000 -0.999114 -0.042085
vn -0.948682 0.000000 -0.316230
vn -0.948683 0.000000 -0.316230
vn -0.948682 0.000000 -0.316230
vn -0.948683 0.000000 -0.316230
vn 0.948682 0.000000 -0.316231
vn 0.948682 0.000000 -0.316231
vn 0.948682 0.000000 -0.316231
vn 0.948682 0.000000 -0.316231
vn -0.948685 0.000000 -0.316221
vn -0.948685 0.000000 -0.316221
vn -0.948685 0.000000 -0.316221
vn -0.948686 0.000000 -0.316221
vn 0.948685 0.000000 -0.316221
vn 0.948686 0.000000 -0.316221
vn 0.948685 0.000000 -0.316221
vn 0.948685 0.000000 -0.316221
vn -0.948682 0.000000 -0.316232
vn -0.948682 0.000000 -0.316232
vn -0.948682 0.000000 -0.316232
vn -0.948682 0.000000 -0.316232
vn 0.948682 0.000000 -0.316232
vn 0.948682 0.000000 -0.316232
vn 0.948682 0.000000 -0.316232
vn 0.948682 0.000000 -0.316232
vn 0.000000 -0.999114 0.042085
vn 0.000000 -0.999114 0.042085
vn 0.000000 -0.999114 0.042085
vn 0.000000 -0.999114 0.042085
vn 0.948682 0.000000 0.316231
vn 0.948682 0.000000 0.316231
vn 0.948682 0.000000 0.316231
vn 0.948682 0.000000 0.316231
vn -0.948682 0.000000 0.316231
vn -0.948682 0.000000 0.316231
vn -0.948682 0.000000 0.316231
vn -0.948682 0.000000 0.316231
vn 0.948684 0.000000 0.316225
vn 0.948684 0.000000 0.316225
vn 0.948684 0.000000 0.316225
vn 0.948684 0.000000 0.316225
vn -0.948685 0.000000 0.316224
vn -0.948685 0.000000 0.316224
vn -0.948685 0.000000 0.316224
vn -0.948685 0.000000 0.316224
vn 0.948683 0.000000 0.316229
vn 0.948683 0.000000 0.316229
vn 0.948683 0.000000 0.316229
vn 0.948683 0.000000 0.316229
vn -0.948683 0.000000 0.316229
vn -0.948683 0.000000 0.316229
vn -0.948683 0.000000 0.316229
vn -0.948683 0.000000 0.316229
vn -0.155537 0.987830 0.000000
vn -0.155537 0.987830 0.000000
vn -0.155537 0.987830 0.000000
vn -0.155537 0.987830 0.000000
vn -0.155522 -0.987832 0.000000
vn -0.155522 -0.987832 0.000000
vn -0.155522 -0.987832 0.000000
vn -0.155522 -0.987832 0.000000
vn -0.155537 0.987830 0.000000
vn -0.155537 0.987830 0.000000
vn -0.155537 0.987830 0.000000
vn -0.155537 0.987830 0.000000
vn -0.155522 -0.987833 0.000000
vn -0.155522 -0.987833 0.000000
vn -0.155522 -0.987832 0.000000
vn -0.155522 -0.987832 0.000000
vn -0.155537 0.987830 0.000000
vn -0.155537 0.987830 0.000000
vn -0.155537 0.987830 0.000000
vn -0.155537 0.987830 0.000000
vn -0.155522 -0.987833 0.000000
vn -0.155522 -0.987832 0.000000
vn -0.155522 -0.987832 0.000000
vn -0.155522 -0.987832 0.000000
vn 0.155522 -0.987832 0.000000
vn 0.155522 -0.987832 0.000000
vn 0.155522 -0.987832 0.000000
vn 0.155522 -0.987832 0.000000
vn 0.155538 0.987830 0.000000
vn 0.155538 0.987830 0.000000
vn 0.155538 0.987830 0.000000
vn 0.155538 0.987830 0.000000
vn 0.155522 -0.987833 0.000000
vn 0.155522 -0.987833 0.000000
vn 0.155522 -0.987833 0.000000
vn 0.155522 -0.987833 0.000000
vn 0.155537 0.987830 0.000000
vn 0.155537 0.987830 0.000000
vn 0.155537 0.987830 0.000000
vn 0.155537 0.987830 0.000000
vn 0.155522 -0.987832 0.000000
vn 0.155522 -0.987832 0.000000
vn 0.155522 -0.987832 0.000000
vn 0.155522 -0.987832 0.000000
vn 0.155538 0.987830 0.000000
vn 0.155538 0.987830 0.000000
vn 0.155538 0.987830 0.000000
vn 0.155538 0.987830 0.000000
vn 0.000000 0.987830 -0.155541
vn 0.000000 0.987830 -0.155541
vn 0.000000 0.987830 -0.155541
vn 0.000000 0.987830 -0.155541
vn 0.000000 -0.987833 -0.155516
vn 0.000000 -0.987833 -0.155516
vn 0.000000 -0.987833 -0.155516
vn 0.000000 -0.987833 -0.155516
vn 0.000000 0.987831 -0.155532
vn 0.000000 0.987831 -0.155532
vn 0.000000 0.987831 -0.155532
vn 0.000000 0.987831 -0.155532
vn 0.000000 -0.987834 -0.155514
vn 0.000000 -0.987834 -0.155514
vn 0.000000 -0.987834 -0.155514
vn 0.000000 -0.987834 -0.155514
vn 0.000000 0.987830 -0.155541
vn 0.000000 0.987829 -0.155541
vn 0.000000 0.987829 -0.155541
vn 0.000000 0.987830 -0.155541
vn 0.000000 -0.987833 -0.155519
vn 0.000000 -0.987833 -0.155519
vn 0.000000 -0.987833 -0.155519
vn 0.000000 -0.987833 -0.155519
vn 0.000000 0.987830 0.155541
vn 0.000000 0.987830 0.155541
vn 0.000000 0.987830 0.155541
vn 0.000000 0.987829 0.155541
vn 0.000000 -0.987833 0.155519
vn 0.000000 -0.987833 0.155519
vn 0.000000 -0.987833 0.155519
vn 0.000000 -0.987833 0.155519
vn 0.000000 0.987831 0.155531
vn 0.000000 0.987831 0.155531
vn 0.000000 0.987831 0.155531
vn 0.000000 0.987831 0.155531
vn 0.000000 -0.987834 0.155514
vn 0.000000 -0.987834 0.155514
vn 0.000000 -0.987834 0.155514
vn 0.000000 -0.987834 0.155514
vn 0.000000 0.987830 0.155541
vn 0.000000 0.987830 0.155541
vn 0.000000 0.987830 0.155541
vn 0.000000 0.987830 0.155541
vn 0.000000 -0.987833 0.155516
vn 0.000000 -0.987833 0.155516
vn 0.000000 -0.987833 0.155516
vn 0.000000 -0.987833 0.155516
s 1
g polySurface29 pCube51
usemtl initialShadingGroup
f 89/1/1 90/2/2 91/3/3 92/151/4
f 90/2/2 93/5/5 94/6/6 91/3/3
f 93/5/5 95/7/7 96/149/8 94/6/6
s 2
f 5/121/9 6/128/10 10/11/11 9/12/12
f 6/128/10 7/127/13 11/14/14 10/11/11
f 7/127/13 8/123/15 12/16/16 11/14/14
f 9/12/12 10/11/11 14/17/17 13/18/18
f 10/11/11 11/14/14 15/19/19 14/17/17
f 11/14/14 12/16/16 16/20/20 15/19/19
f 13/18/18 14/17/17 18/21/21 17/22/22
f 14/17/17 15/19/19 19/23/23 18/21/21
f 15/19/19 16/20/20 20/24/24 19/23/23
s 3
f 17/22/25 18/21/26 22/148/27 21/130/28
f 18/21/26 19/23/29 23/147/30 22/148/27
f 19/23/29 20/24/31 24/138/32 23/147/30
s 4
f 69/29/33 70/30/34 71/31/35 72/32/36
f 70/30/34 73/33/37 74/34/38 71/31/35
f 73/33/37 75/35/39 76/36/40 74/34/38
s 5
f 25/132/41 26/146/42 30/39/43 29/40/44
f 26/146/42 27/145/45 31/42/46 30/39/43
f 27/145/45 28/140/47 32/44/48 31/42/46
s 6
f 29/40/49 30/39/50 34/45/51 33/46/52
f 30/39/50 31/42/53 35/47/54 34/45/51
f 31/42/53 32/44/55 36/48/56 35/47/54
f 33/46/52 34/45/51 38/49/57 37/50/58
f 34/45/51 35/47/54 39/51/59 38/49/57
f 35/47/54 36/48/56 40/52/60 39/51/59
f 37/50/58 38/49/57 42/126/61 41/122/62
f 38/49/57 39/51/59 43/125/63 42/126/61
f 39/51/59 40/52/60 44/124/64 43/125/63
s 7
f 97/153/65 98/58/66 99/59/67 100/60/68
f 98/58/66 101/61/69 102/62/70 99/59/67
f 101/61/69 103/155/71 104/64/72 102/62/70
s 8
f 45/65/73 46/66/74 50/67/75 49/68/76
f 46/66/74 47/69/77 51/70/78 50/67/75
f 47/69/77 48/71/79 52/72/80 51/70/78
f 49/68/76 50/67/75 54/73/81 53/74/82
f 50/67/75 51/70/78 55/75/83 54/73/81
f 51/70/78 52/72/80 56/76/84 55/75/83
f 53/74/82 54/73/81 2/77/85 1/78/86
f 54/73/81 55/75/83 3/79/87 2/77/85
f 55/75/83 56/76/84 4/80/88 3/79/87
s 9
f 105/81/89 104/64/90 103/63/91 106/82/92
f 107/83/93 105/81/89 106/82/92 108/84/94
f 95/7/95 107/83/93 108/84/94 96/8/96
s 10
f 57/144/97 44/124/98 40/52/99 59/142/100
s 11
f 78/87/101 77/88/102 79/89/103 80/90/104
s 12
f 8/123/105 58/119/106 60/141/107 12/16/108
s 10
f 59/142/100 40/52/99 36/48/109 61/139/110
s 11
f 80/90/104 79/89/103 81/94/111 82/95/112
s 12
f 12/16/108 60/141/107 62/137/113 16/20/114
s 10
f 61/139/110 36/48/109 32/44/115 28/140/116
s 11
f 82/95/112 81/94/111 76/36/117 75/35/118
s 12
f 16/20/114 62/137/113 24/138/119 20/24/120
s 13
f 100/60/121 109/97/122 110/98/123 97/57/124
f 109/97/122 111/99/125 112/100/126 110/98/123
f 111/99/125 89/1/127 92/4/128 112/100/126
s 14
f 41/122/129 63/116/130 65/134/131 37/50/132
s 15
f 83/103/133 84/104/134 85/105/135 86/106/136
s 16
f 64/135/137 5/121/138 9/12/139 66/133/140
s 14
f 37/50/132 65/134/131 67/131/141 33/46/142
s 15
f 86/106/136 85/105/135 87/110/143 88/111/144
s 16
f 66/133/140 9/12/139 13/18/145 68/129/146
s 14
f 33/46/142 67/131/141 25/132/147 29/40/148
s 15
f 88/111/144 87/110/143 69/29/149 72/32/150
s 16
f 68/129/146 13/18/145 17/22/151 21/130/152
s off
f 21/26/153 22/25/154 70/30/155 69/29/156
f 26/38/157 25/37/158 72/32/159 71/31/160
f 22/25/161 23/27/162 73/33/163 70/30/164
f 27/41/165 26/38/166 71/31/167 74/34/168
f 23/27/169 24/28/170 75/35/171 73/33/172
f 28/43/173 27/41/174 74/34/175 76/36/176
f 58/91/177 57/85/178 77/117/179 78/118/180
f 57/120/181 59/86/182 79/89/183 77/88/184
f 60/92/185 58/143/186 78/87/187 80/90/188
f 59/86/189 61/93/190 81/94/191 79/89/192
f 62/96/193 60/92/194 80/90/195 82/95/196
f 61/93/197 28/43/198 76/36/199 81/94/200
f 24/28/201 62/96/202 82/95/203 75/35/204
f 63/101/205 64/107/206 84/114/207 83/113/208
f 64/115/209 66/108/210 85/105/211 84/104/212
f 65/102/213 63/136/214 83/103/215 86/106/216
f 66/108/217 68/112/218 87/110/219 85/105/220
f 67/109/221 65/102/222 86/106/223 88/111/224
f 68/112/225 21/26/226 69/29/227 87/110/228
f 25/37/229 67/109/230 88/111/231 72/32/232
f 1/78/233 2/77/234 90/2/235 89/1/236
f 6/10/237 5/152/238 92/151/239 91/3/240
f 2/77/241 3/79/242 93/5/243 90/2/244
f 7/13/245 6/10/246 91/3/247 94/6/248
f 3/79/249 4/80/250 95/7/251 93/5/252
f 8/15/253 7/13/254 94/6/255 96/149/256
f 41/54/257 42/53/258 98/58/259 97/153/260
f 46/66/261 45/65/262 100/60/263 99/59/264
f 42/53/265 43/55/266 101/61/267 98/58/268
f 47/69/269 46/66/270 99/59/271 102/62/272
f 43/55/273 44/156/274 103/155/275 101/61/276
f 48/71/277 47/69/278 102/62/279 104/64/280
f 52/72/281 48/71/282 104/64/283 105/81/284
f 44/56/285 57/85/286 106/82/287 103/63/288
f 56/76/289 52/72/290 105/81/291 107/83/292
f 57/85/293 58/91/294 108/84/295 106/82/296
f 4/80/297 56/76/298 107/83/299 95/7/300
f 58/91/301 8/150/302 96/8/303 108/84/304
f 45/65/305 49/68/306 109/97/307 100/60/308
f 63/101/309 41/154/310 97/57/311 110/98/312
f 49/68/313 53/74/314 111/99/315 109/97/316
f 64/107/317 63/101/318 110/98/319 112/100/320
f 53/74/321 1/78/322 89/1/323 111/99/324
f 5/9/325 64/107/326 112/100/327 92/4/328
