# This file uses centimeters as units for non-parametric coordinates.

mtllib desk.mtl
g default
v -7.420259 -0.016967 -0.294362
v -7.420259 -0.016967 -1.294362
v -7.420259 0.593680 -0.294362
v -7.420259 0.593680 -1.294362
v -8.153519 0.593680 -0.294362
v -8.153519 0.593680 -1.294362
v -8.153519 -0.016967 -0.294362
v -8.153519 -0.016967 -1.294362
v -7.420259 0.057459 -0.294362
v -7.420259 0.057459 -1.294362
v -7.420259 0.519254 -1.294362
v -7.420259 0.519254 -0.294362
v -8.153519 0.519254 -0.294362
v -8.153519 0.519254 -1.294362
v -8.153519 0.057459 -1.294362
v -8.153519 0.057459 -0.294362
v -7.471247 0.049789 -0.410777
v -7.471247 0.049789 -1.177947
v -7.471247 0.519254 -1.177947
v -7.471247 0.519254 -0.410777
v -8.102532 -0.016967 -0.410777
v -8.102532 -0.016967 -1.177947
v -7.471247 -0.016967 -1.177947
v -7.471247 -0.016967 -0.410777
v -8.102532 0.049789 -0.410777
v -8.102532 0.049789 -1.177947
v -8.085495 0.511961 -0.410777
v -8.085495 0.511961 -1.177947
vt 0.618287 0.761426
vt 0.154557 0.761426
vt 0.322760 0.289352
vt 0.490558 0.289352
vt 0.322760 0.457150
vt 0.490558 0.457150
vt 0.618287 0.892609
vt 0.383690 0.892609
vt 0.610523 0.297023
vt 0.833606 0.297023
vt 0.383690 0.761426
vt 0.838021 0.761426
vt 0.838021 0.892609
vt 0.154557 0.892609
vt 0.154557 0.740263
vt 0.618287 0.740263
vt 0.618287 0.913663
vt 0.383690 0.913663
vt 0.383690 0.740263
vt 0.838021 0.740263
vt 0.838021 0.913663
vt 0.520378 0.682996
vt 0.298073 0.495010
vt 0.295872 0.682996
vt 0.295872 0.665709
vt 0.807621 0.314092
vt 0.636483 0.314092
vt 0.833606 0.445967
vt 0.807621 0.431031
vt 0.520378 0.665709
vt 0.520378 0.562544
vt 0.385407 0.068090
vt 0.619931 0.068090
vt 0.619931 0.091489
vt 0.385407 0.091489
vt 0.847668 0.068090
vt 0.847668 0.091489
vt 0.156459 0.068090
vt 0.156459 0.091489
vt 0.619931 0.254454
vt 0.385407 0.254454
vt 0.082516 0.495010
vt 0.082516 0.322592
vt 0.847668 0.254454
vt 0.298073 0.322592
vt 0.156459 0.254454
vt 0.495763 0.653486
vt 0.499034 0.562544
vt 0.326062 0.656442
vt 0.295872 0.564031
vt 0.328550 0.564031
vt 0.520378 0.547319
vt 0.499034 0.547319
vt 0.295872 0.549048
vt 0.328550 0.549048
vt 0.610523 0.452038
vt 0.636483 0.437102
vt 0.154557 0.913663
vn 0.000000 1.000000 0.000000
vn 0.000000 1.000000 0.000000
vn 0.000000 1.000000 0.000000
vn 0.000000 1.000000 0.000000
vn -1.000000 0.000000 0.000000
vn -1.000000 0.000000 0.000000
vn -1.000000 0.000000 0.000000
vn -1.000000 0.000000 0.000000
vn -0.000000 0.000000 -1.000000
vn -0.000000 0.000000 -1.000000
vn -0.000000 0.000000 -1.000000
vn -0.000000 0.000000 -1.000000
vn 0.000000 0.000000 1.000000
vn 0.000000 0.000000 1.000000
vn 0.000000 0.000000 1.000000
vn 0.000000 0.000000 1.000000
vn 1.000000 0.000000 0.000000
vn 1.000000 0.000000 0.000000
vn 1.000000 0.000000 0.000000
vn 1.000000 0.000000 0.000000
vn -1.000000 0.000000 0.000000
vn -1.000000 0.000000 0.000000
vn -1.000000 0.000000 0.000000
vn -1.000000 0.000000 0.000000
vn -1.000000 0.000000 0.000000
vn -1.000000 0.000000 0.000000
vn -1.000000 0.000000 0.000000
vn -1.000000 0.000000 0.000000
vn -0.000000 0.000000 -1.000000
vn -0.000000 0.000000 -1.000000
vn -0.000000 0.000000 -1.000000
vn -0.000000 0.000000 -1.000000
vn -0.000000 0.000000 -1.000000
vn -0.000000 0.000000 -1.000000
vn -0.000000 0.000000 -1.000000
vn -0.000000 0.000000 -1.000000
vn 0.000000 0.000000 1.000000
vn 0.000000 0.000000 1.000000
vn 0.000000 0.000000 1.000000
vn 0.000000 0.000000 1.000000
vn 0.000000 0.000000 1.000000
vn 0.000000 0.000000 1.000000
vn 0.000000 0.000000 1.000000
vn 0.000000 0.000000 1.000000
vn 0.915996 0.000000 0.401189
vn 0.915995 0.000000 0.401189
vn 0.915995 0.000000 0.401189
vn 0.915995 0.000000 0.401189
vn 0.000000 -1.000000 0.000000
vn 0.000000 -1.000000 0.000000
vn 0.000000 -1.000000 0.000000
vn 0.000000 -1.000000 0.000000
vn 0.915995 0.000000 -0.401189
vn 0.915995 0.000000 -0.401189
vn 0.915995 0.000000 -0.401189
vn 0.915995 0.000000 -0.401189
vn 0.000000 -1.000000 0.000000
vn 0.000000 -1.000000 0.000000
vn 0.000000 -1.000000 0.000000
vn 0.000000 -1.000000 0.000000
vn 0.000000 -1.000000 0.000000
vn 0.000000 -1.000000 0.000000
vn 0.000000 -1.000000 0.000000
vn 0.000000 -1.000000 0.000000
vn 0.000000 -1.000000 -0.000000
vn 0.000000 -1.000000 -0.000000
vn 0.000000 -1.000000 -0.000000
vn 0.000000 -1.000000 -0.000000
vn 0.915996 0.000000 0.401188
vn 0.915996 0.000000 0.401188
vn 0.915996 0.000000 0.401188
vn 0.915996 0.000000 0.401188
vn 0.915996 0.000000 -0.401188
vn 0.915996 0.000000 -0.401188
vn 0.915996 0.000000 -0.401188
vn 0.915996 0.000000 -0.401188
vn 1.000000 0.000000 0.000000
vn 1.000000 0.000000 0.000000
vn 1.000000 0.000000 0.000000
vn 1.000000 0.000000 0.000000
vn 0.000000 0.000000 1.000000
vn 0.000000 0.000000 1.000000
vn 0.000000 0.000000 1.000000
vn 0.000000 0.000000 1.000000
vn -0.000000 0.000000 -1.000000
vn -0.000000 0.000000 -1.000000
vn -0.000000 0.000000 -1.000000
vn -0.000000 0.000000 -1.000000
vn 0.999321 -0.036836 0.000000
vn 0.999321 -0.036836 0.000000
vn 0.999321 -0.036836 0.000000
vn 0.999321 -0.036836 0.000000
vn 0.000000 0.000000 1.000000
vn 0.000000 0.000000 1.000000
vn 0.000000 0.000000 1.000000
vn 0.000000 0.000000 1.000000
vn -0.000000 0.000000 -1.000000
vn -0.000000 0.000000 -1.000000
vn -0.000000 0.000000 -1.000000
vn -0.000000 0.000000 -1.000000
vn 0.011873 -0.999930 0.000000
vn 0.011873 -0.999930 0.000000
vn 0.011873 -0.999929 0.000000
vn 0.011873 -0.999930 0.000000
s off
g pCube30
usemtl initialShadingGroup
f 3/3/1 4/4/2 6/6/3 5/5/4
f 13/7/5 14/8/6 15/11/7 16/1/8
f 10/2/9 15/11/10 14/8/11 11/14/12
f 16/1/13 9/12/14 12/13/15 13/7/16
f 4/22/17 3/24/18 12/25/19 11/30/20
f 5/17/21 6/18/22 14/8/23 13/7/24
f 8/19/25 7/16/26 16/1/27 15/11/28
f 2/15/29 8/19/30 15/11/31 10/2/32
f 6/18/33 4/58/34 11/14/35 14/8/36
f 7/16/37 1/20/38 9/12/39 16/1/40
f 3/21/41 5/17/42 13/7/43 12/13/44
f 10/31/45 11/30/46 19/47/47 18/48/48
f 11/30/49 12/25/50 20/49/51 19/47/52
f 12/25/53 9/50/54 17/51/55 20/49/56
f 7/9/57 8/10/58 22/26/59 21/27/60
f 8/10/61 2/28/62 23/29/63 22/26/64
f 1/56/65 7/9/66 21/27/67 24/57/68
f 2/52/69 10/31/70 18/48/71 23/53/72
f 9/50/73 1/54/74 24/55/75 17/51/76
f 21/32/77 22/33/78 26/34/79 25/35/80
f 22/33/81 23/36/82 18/37/83 26/34/84
f 24/38/85 21/32/86 25/35/87 17/39/88
f 25/35/89 26/34/90 28/40/91 27/41/92
f 26/34/93 18/37/94 19/44/95 28/40/96
f 17/39/97 25/35/98 27/41/99 20/46/100
f 19/23/101 20/42/102 27/43/103 28/45/104
