# This file uses centimeters as units for non-parametric coordinates.

mtllib BayDoorLarge.mtl
g default
v 15.088858 0.024101 29.445766
v 18.034405 0.024101 29.445766
v 15.088858 14.406356 29.445766
v 18.034405 14.406356 29.445766
v 15.088858 14.406356 29.050043
v 18.034405 14.406356 29.050043
v 15.088858 0.024101 29.050594
v 18.034405 0.024101 29.050594
v 15.088858 1.504879 29.445766
v 15.088858 1.504879 29.050594
v 18.034405 1.504879 29.050594
v 18.034405 1.504879 29.445766
v 15.088858 7.108200 29.445766
v 15.088858 7.108200 29.050043
v 18.034405 7.108200 29.050043
v 18.034405 7.108200 29.445766
v 15.719490 6.367255 29.050043
v 17.403774 6.367255 29.050043
v 17.403774 2.702543 29.065575
v 15.719490 2.702543 29.065575
v 15.869181 6.041557 29.241205
v 17.254084 6.041557 29.241205
v 17.254084 3.028243 29.252296
v 15.869181 3.028243 29.252296
v 15.524658 1.285795 29.104893
v 17.598606 1.285795 29.104893
v 17.598606 0.243185 29.104893
v 15.524658 0.243185 29.104893
v 15.825566 1.134524 29.159317
v 17.297703 1.134524 29.159317
v 17.297703 0.394458 29.159317
v 15.825566 0.394458 29.159317
v 16.126474 0.983253 29.040833
v 16.996794 0.983253 29.040833
v 16.996794 0.545728 29.040833
v 16.126474 0.545728 29.040833
v 18.034405 13.311831 29.445766
v 15.088858 13.311831 29.445766
v 15.088858 13.311831 29.050043
v 18.034405 13.311831 29.050043
v 15.477617 12.583046 29.050043
v 17.645653 12.583046 29.050043
v 17.645653 7.713070 29.050043
v 15.477617 7.713070 29.050043
v 15.477617 13.388662 29.050043
v 17.645653 13.388662 29.050043
v 15.672501 12.217703 29.202744
v 17.450769 12.217703 29.202744
v 17.450769 8.223248 29.202744
v 15.672501 8.223248 29.202744
v 15.672501 12.878485 29.202744
v 17.450769 12.878485 29.202744
v 15.823763 7.074250 29.050043
v 17.299501 7.074250 29.050043
v 16.983551 6.703032 29.050043
v 16.139713 6.703032 29.050043
v 16.018532 7.377295 29.050043
v 17.104734 7.377295 29.050043
v 17.855341 7.102435 29.090956
v 17.301382 6.424278 29.090956
v 17.046492 6.636492 29.090956
v 17.409573 7.080977 29.090956
v 15.821880 6.424278 29.090956
v 16.076775 6.636492 29.090956
v 15.267920 7.102435 29.090956
v 15.713692 7.080977 29.090956
v 15.609413 7.656048 29.090956
v 15.937517 7.443834 29.090956
v 17.513855 7.656048 29.090956
v 17.185751 7.443834 29.090956
vt 0.333315 0.118566
vt 0.488401 0.123385
vt 0.485978 0.201350
vt 0.330893 0.196531
vt 0.309785 0.875806
vt 0.464871 0.880625
vt 0.065145 0.932027
vt 0.243279 0.931472
vt 0.177783 0.124953
vt 0.126568 0.124840
vt 0.127063 0.100230
vt 0.178045 0.100358
vt 0.241222 0.066886
vt 0.063399 0.067141
vt 0.062677 0.158359
vt 0.242162 0.157995
vt 0.321725 0.491551
vt 0.243493 0.495013
vt 0.192640 0.428742
vt 0.113198 0.428273
vt 0.113146 0.251437
vt 0.192297 0.251719
vt 0.062813 0.495366
vt 0.476811 0.496370
vt 0.311575 0.818178
vt 0.244046 0.866353
vt 0.206502 0.800655
vt 0.101341 0.800887
vt 0.100701 0.563079
vt 0.205957 0.563275
vt 0.064147 0.866903
vt 0.466661 0.822997
vt 0.198351 0.492870
vt 0.107960 0.492980
vt 0.126992 0.470964
vt 0.179224 0.470892
vt 0.099898 0.230707
vt 0.100058 0.449750
vt 0.205254 0.230327
vt 0.206059 0.449566
vt 0.089517 0.144902
vt 0.215267 0.144708
vt 0.089962 0.080450
vt 0.214713 0.080321
vt 0.108040 0.135511
vt 0.196687 0.135434
vt 0.108340 0.089737
vt 0.196392 0.089699
vt 0.206583 0.839832
vt 0.101450 0.839879
vt 0.086216 0.532136
vt 0.086798 0.822736
vt 0.186501 0.510737
vt 0.119891 0.510810
vt 0.221163 0.822435
vt 0.220282 0.531940
vt 0.088197 0.871420
vt 0.220011 0.870963
vt 0.073856 0.494959
vt 0.106651 0.453834
vt 0.122821 0.466405
vt 0.100797 0.493357
vt 0.199478 0.453681
vt 0.183373 0.466311
vt 0.232454 0.494665
vt 0.205514 0.493210
vt 0.212000 0.527827
vt 0.191663 0.515285
vt 0.094481 0.527994
vt 0.114750 0.515381
vt 0.487497 0.823644
vt 0.497646 0.497017
vt 0.290740 0.817530
vt 0.300890 0.490903
vt 0.506785 0.201996
vt 0.310086 0.195884
vt 0.489048 0.102579
vt 0.312509 0.117920
vt 0.485706 0.881272
vt 0.309137 0.896641
vt 0.509207 0.124032
vt 0.333962 0.097760
vt 0.464223 0.901460
vt 0.288950 0.875158
vn 0.000000 0.000000 1.000000
vn 0.000000 0.000000 1.000000
vn 0.000000 0.000000 1.000000
vn 0.000000 0.000000 1.000000
vn 0.000000 1.000000 0.000000
vn 0.000000 1.000000 0.000000
vn 0.000000 1.000000 0.000000
vn 0.000000 1.000000 0.000000
vn 0.000000 0.000000 -1.000000
vn 0.000000 0.000000 -1.000000
vn 0.000000 0.000000 -1.000000
vn 0.000000 0.000000 -1.000000
vn 0.000000 -1.000000 0.000000
vn 0.000000 -1.000000 0.000000
vn 0.000000 -1.000000 0.000000
vn 0.000000 -1.000000 0.000000
vn 1.000000 0.000000 0.000000
vn 1.000000 0.000000 0.000000
vn 1.000000 0.000000 0.000000
vn 1.000000 0.000000 0.000000
vn -1.000000 0.000000 0.000000
vn -1.000000 0.000000 0.000000
vn -1.000000 -0.000000 0.000000
vn -1.000000 -0.000000 0.000000
vn -1.000000 -0.000000 0.000000
vn -1.000000 -0.000000 0.000000
vn 0.000000 -0.003681 -0.999993
vn 0.000000 -0.003681 -0.999993
vn 0.000000 -0.003681 -0.999993
vn 0.000000 -0.003681 -0.999993
vn 1.000000 0.000000 0.000000
vn 1.000000 0.000000 0.000000
vn 0.000000 0.000000 1.000000
vn 0.000000 0.000000 1.000000
vn -1.000000 0.000000 0.000000
vn -1.000000 0.000000 0.000000
vn 0.000000 0.000000 -1.000000
vn 0.000000 0.000000 -1.000000
vn 0.000000 0.000000 -1.000000
vn 0.000000 0.000000 -1.000000
vn 1.000000 0.000000 0.000000
vn 1.000000 0.000000 0.000000
vn 0.000000 0.000000 1.000000
vn 0.000000 0.000000 1.000000
vn 0.000000 0.000000 -1.000000
vn 0.000000 0.000000 -1.000000
vn 0.000000 0.000000 -1.000000
vn 0.000000 0.000000 -1.000000
vn -0.012498 -0.001735 -0.999920
vn -0.012498 -0.001735 -0.999920
vn -0.012498 -0.001735 -0.999920
vn -0.012498 -0.001735 -0.999920
vn 0.000000 0.012507 -0.999922
vn 0.000000 0.012507 -0.999922
vn 0.000000 0.012507 -0.999922
vn 0.000000 0.012507 -0.999922
vn 0.012495 -0.001735 -0.999920
vn 0.012495 -0.001735 -0.999920
vn 0.012495 -0.001735 -0.999920
vn 0.012495 -0.001735 -0.999920
vn 0.000000 -0.506184 -0.862426
vn 0.000000 -0.506184 -0.862426
vn 0.000000 -0.506184 -0.862426
vn 0.000000 -0.506184 -0.862426
vn -0.783819 -0.002475 -0.620984
vn -0.783819 -0.002475 -0.620984
vn -0.783819 -0.002475 -0.620984
vn -0.783819 -0.002475 -0.620984
vn 0.000002 0.497358 -0.867545
vn 0.000002 0.497358 -0.867545
vn 0.000002 0.497358 -0.867545
vn 0.000002 0.497358 -0.867545
vn 0.783817 -0.002476 -0.620987
vn 0.783817 -0.002476 -0.620987
vn 0.783817 -0.002476 -0.620987
vn 0.783817 -0.002476 -0.620987
vn 0.000000 -0.240565 -0.970633
vn 0.000000 -0.240565 -0.970633
vn 0.000000 -0.240565 -0.970633
vn 0.000000 -0.240565 -0.970633
vn -0.123632 0.000000 -0.992328
vn -0.123632 0.000000 -0.992328
vn -0.123632 0.000000 -0.992328
vn -0.123632 0.000000 -0.992328
vn 0.000000 0.240565 -0.970633
vn 0.000000 0.240565 -0.970633
vn 0.000000 0.240565 -0.970633
vn 0.000000 0.240565 -0.970633
vn 0.123631 0.000000 -0.992328
vn 0.123631 0.000000 -0.992328
vn 0.123631 0.000000 -0.992328
vn 0.123631 0.000000 -0.992328
vn 0.000000 -0.338535 -0.940954
vn 0.000000 -0.338535 -0.940954
vn 0.000000 -0.338535 -0.940954
vn 0.000000 -0.338535 -0.940954
vn -0.177986 0.000000 -0.984033
vn -0.177986 0.000000 -0.984033
vn -0.177986 0.000000 -0.984033
vn -0.177986 0.000000 -0.984033
vn 0.000000 0.338533 -0.940955
vn 0.000000 0.338533 -0.940955
vn 0.000000 0.338533 -0.940955
vn 0.000000 0.338533 -0.940955
vn 0.177981 0.000000 -0.984034
vn 0.177981 0.000000 -0.984034
vn 0.177981 0.000000 -0.984034
vn 0.177981 0.000000 -0.984034
vn 0.000000 0.616627 -0.787255
vn 0.000000 0.616627 -0.787255
vn 0.000000 0.616628 -0.787255
vn 0.000000 0.616628 -0.787255
vn 0.366370 0.000000 -0.930469
vn 0.366370 0.000000 -0.930469
vn 0.366370 0.000000 -0.930469
vn 0.366370 0.000000 -0.930469
vn 0.000000 -0.616629 -0.787254
vn 0.000000 -0.616629 -0.787254
vn 0.000000 -0.616629 -0.787254
vn 0.000000 -0.616629 -0.787254
vn -0.366377 0.000000 -0.930466
vn -0.366377 0.000000 -0.930466
vn -0.366377 0.000000 -0.930466
vn -0.366377 0.000000 -0.930466
vn 0.000000 0.000000 1.000000
vn 0.000000 0.000000 1.000000
vn -1.000000 0.000000 0.000000
vn -1.000000 0.000000 0.000000
vn 0.000000 0.000000 -1.000000
vn 0.000000 0.000000 -1.000000
vn 1.000000 0.000000 0.000000
vn 1.000000 0.000000 0.000000
vn -0.000002 0.000000 -1.000000
vn -0.000002 0.000000 -1.000000
vn -0.000002 0.000000 -1.000000
vn -0.000002 0.000000 -1.000000
vn 0.000000 0.000000 -1.000000
vn 0.000000 0.000000 -1.000000
vn 0.000000 0.000000 -1.000000
vn 0.000000 0.000000 -1.000000
vn -0.000004 0.000000 -1.000000
vn -0.000004 0.000000 -1.000000
vn -0.000004 0.000000 -1.000000
vn -0.000004 0.000000 -1.000000
vn 0.000000 0.000000 -1.000000
vn 0.000000 0.000000 -1.000000
vn 0.000000 0.000000 -1.000000
vn 0.000000 0.000000 -1.000000
vn 0.000000 0.000000 -1.000000
vn 0.000000 0.000000 -1.000000
vn 0.000000 0.000000 -1.000000
vn 0.000000 0.000000 -1.000000
vn 0.000000 0.000000 -1.000000
vn 0.000000 0.000000 -1.000000
vn 0.000000 0.000000 -1.000000
vn 0.000000 0.000000 -1.000000
vn -0.616771 0.000000 -0.787143
vn -0.616771 0.000000 -0.787143
vn -0.616771 0.000000 -0.787143
vn -0.616771 0.000000 -0.787143
vn 0.000000 0.286740 -0.958009
vn 0.000000 0.286740 -0.958009
vn 0.000000 0.286740 -0.958009
vn 0.000000 0.286740 -0.958009
vn 0.616772 0.000000 -0.787142
vn 0.616772 0.000000 -0.787142
vn 0.616772 0.000000 -0.787142
vn 0.616772 0.000000 -0.787142
vn 0.000000 -0.286740 -0.958009
vn 0.000000 -0.286740 -0.958009
vn 0.000000 -0.286740 -0.958009
vn 0.000000 -0.286740 -0.958009
vn -0.616756 0.000000 -0.787155
vn -0.616756 0.000000 -0.787155
vn -0.616756 0.000000 -0.787155
vn -0.616756 0.000000 -0.787155
vn 0.616762 0.000000 -0.787150
vn 0.616762 0.000000 -0.787150
vn 0.616762 0.000000 -0.787150
vn 0.616762 0.000000 -0.787150
vn 0.000004 0.000000 -1.000000
vn 0.000004 0.000000 -1.000000
vn 0.000004 0.000000 -1.000000
vn 0.000004 0.000000 -1.000000
vn 0.000000 0.000000 -1.000000
vn 0.000000 0.000000 -1.000000
vn 0.000000 0.000000 -1.000000
vn 0.000000 0.000000 -1.000000
vn -0.000004 0.000000 -1.000000
vn -0.000004 0.000000 -1.000000
vn -0.000004 0.000000 -1.000000
vn -0.000004 0.000000 -1.000000
vn 0.000000 0.000000 -1.000000
vn 0.000000 0.000000 -1.000000
vn 0.000000 0.000000 -1.000000
vn 0.000000 0.000000 -1.000000
vn 0.000000 0.000000 -1.000000
vn 0.000000 0.000000 -1.000000
vn 0.000000 0.000000 -1.000000
vn 0.000000 0.000000 -1.000000
vn 0.000000 0.000000 -1.000000
vn 0.000000 0.000000 -1.000000
vn 0.000000 0.000000 -1.000000
vn 0.000000 0.000000 -1.000000
vn -0.239737 0.200120 -0.949989
vn -0.239737 0.200120 -0.949989
vn -0.239737 0.200120 -0.949989
vn -0.239737 0.200120 -0.949989
vn 0.331355 -0.275848 -0.902282
vn 0.331355 -0.275848 -0.902282
vn 0.331355 -0.275848 -0.902282
vn 0.331355 -0.275848 -0.902282
vn 0.000000 0.582954 -0.812505
vn 0.000000 0.582954 -0.812505
vn 0.000000 0.582954 -0.812505
vn 0.000000 0.582954 -0.812505
vn 0.000000 -0.523774 -0.851858
vn 0.000000 -0.523774 -0.851858
vn 0.000000 -0.523774 -0.851858
vn 0.000000 -0.523774 -0.851858
vn 0.239740 0.200121 -0.949988
vn 0.239740 0.200121 -0.949988
vn 0.239740 0.200121 -0.949988
vn 0.239740 0.200121 -0.949988
vn -0.331357 -0.275851 -0.902280
vn -0.331357 -0.275851 -0.902280
vn -0.331357 -0.275851 -0.902280
vn -0.331357 -0.275851 -0.902280
vn 0.225077 -0.141879 -0.963956
vn 0.225077 -0.141879 -0.963956
vn 0.225077 -0.141879 -0.963956
vn 0.225077 -0.141879 -0.963956
vn -0.319550 0.200859 -0.926036
vn -0.319550 0.200859 -0.926036
vn -0.319550 0.200859 -0.926036
vn -0.319550 0.200859 -0.926036
vn 0.000000 -0.582957 -0.812503
vn 0.000000 -0.582957 -0.812503
vn 0.000000 -0.582957 -0.812503
vn 0.000000 -0.582957 -0.812503
vn 0.000000 0.523775 -0.851857
vn 0.000000 0.523775 -0.851857
vn 0.000000 0.523775 -0.851857
vn 0.000000 0.523775 -0.851857
vn -0.225075 -0.141875 -0.963957
vn -0.225075 -0.141875 -0.963957
vn -0.225075 -0.141875 -0.963957
vn -0.225075 -0.141875 -0.963957
vn 0.319553 0.200855 -0.926036
vn 0.319553 0.200855 -0.926036
vn 0.319553 0.200855 -0.926036
vn 0.319553 0.200855 -0.926036
s 1
g pCube59
usemtl initialShadingGroup
f 1/1/1 2/2/2 12/3/3 9/4/4
s off
f 3/5/5 4/6/6 6/83/7 5/80/8
f 33/9/9 34/10/10 35/11/11 36/12/12
f 7/82/13 8/77/14 2/2/15 1/1/16
s 2
f 2/2/17 8/81/18 11/75/19 12/3/20
s 3
f 7/78/21 1/1/22 9/4/23 10/76/24
f 10/76/24 9/4/23 13/17/25 14/74/26
s off
f 21/19/27 22/20/28 23/21/29 24/22/30
s 2
f 12/3/20 11/75/19 15/72/31 16/24/32
s 1
f 9/4/4 12/3/3 16/24/33 13/17/34
s 3
f 14/74/26 13/17/25 38/25/35 39/73/36
s 4
f 47/27/37 48/28/38 49/29/39 50/30/40
s 2
f 16/24/32 15/72/31 40/71/41 37/32/42
s 1
f 13/17/34 16/24/33 37/32/43 38/25/44
s off
f 53/33/45 54/34/46 55/35/47 56/36/48
f 15/23/49 11/15/50 19/37/51 18/38/52
f 11/15/53 10/16/54 20/39/55 19/37/56
f 10/16/57 14/18/58 17/40/59 20/39/60
f 17/40/61 18/38/62 22/20/63 21/19/64
f 18/38/65 19/37/66 23/21/67 22/20/68
f 19/37/69 20/39/70 24/22/71 23/21/72
f 20/39/73 17/40/74 21/19/75 24/22/76
f 10/16/77 11/15/78 26/41/79 25/42/80
f 11/15/81 8/14/82 27/43/83 26/41/84
f 8/14/85 7/13/86 28/44/87 27/43/88
f 7/13/89 10/16/90 25/42/91 28/44/92
f 25/42/93 26/41/94 30/45/95 29/46/96
f 26/41/97 27/43/98 31/47/99 30/45/100
f 27/43/101 28/44/102 32/48/103 31/47/104
f 28/44/105 25/42/106 29/46/107 32/48/108
f 29/46/109 30/45/110 34/10/111 33/9/112
f 30/45/113 31/47/114 35/11/115 34/10/116
f 31/47/117 32/48/118 36/12/119 35/11/120
f 32/48/121 29/46/122 33/9/123 36/12/124
s 1
f 38/25/44 37/32/43 4/6/125 3/5/126
s 3
f 39/73/36 38/25/35 3/5/127 5/84/128
s 4
f 51/49/129 52/50/130 48/28/38 47/27/37
s 2
f 37/32/42 40/71/41 6/79/131 4/6/132
s off
f 40/31/133 15/23/134 43/51/135 42/52/136
f 54/34/137 53/33/138 57/53/139 58/54/140
f 14/18/141 39/26/142 41/55/143 44/56/144
f 5/8/145 6/7/146 46/57/147 45/58/148
f 6/7/149 40/31/150 42/52/151 46/57/152
f 39/26/153 5/8/154 45/58/155 41/55/156
f 42/52/157 43/51/158 49/29/159 48/28/160
f 43/51/161 44/56/162 50/30/163 49/29/164
f 44/56/165 41/55/166 47/27/167 50/30/168
f 45/58/169 46/57/170 52/50/171 51/49/172
f 46/57/173 42/52/174 48/28/175 52/50/176
f 41/55/177 45/58/178 51/49/179 47/27/180
f 59/59/181 60/60/182 61/61/183 62/62/184
f 60/60/185 63/63/186 64/64/187 61/61/188
f 63/63/189 65/65/190 66/66/191 64/64/192
f 65/65/193 67/67/194 68/68/195 66/66/196
f 67/67/197 69/69/198 70/70/199 68/68/200
f 69/69/201 59/59/202 62/62/203 70/70/204
f 15/23/205 18/38/206 60/60/207 59/59/208
f 55/35/209 54/34/210 62/62/211 61/61/212
f 18/38/213 17/40/214 63/63/215 60/60/216
f 56/36/217 55/35/218 61/61/219 64/64/220
f 17/40/221 14/18/222 65/65/223 63/63/224
f 53/33/225 56/36/226 64/64/227 66/66/228
f 14/18/229 44/56/230 67/67/231 65/65/232
f 57/53/233 53/33/234 66/66/235 68/68/236
f 44/56/237 43/51/238 69/69/239 67/67/240
f 58/54/241 57/53/242 68/68/243 70/70/244
f 43/51/245 15/23/246 59/59/247 69/69/248
f 54/34/249 58/54/250 70/70/251 62/62/252
