# This file uses centimeters as units for non-parametric coordinates.

mtllib catwalkBend.mtl
g default
v -0.450678 2.574980 4.478177
v -0.462123 2.574980 4.487303
v -0.468474 2.574980 4.500493
v -0.468474 2.574980 4.515131
v -0.462123 2.574980 4.528321
v -0.450677 2.574980 4.537448
v -0.436405 2.574980 4.540705
v -0.422134 2.574980 4.537448
v -0.410689 2.574980 4.528321
v -0.404337 2.574980 4.515131
v -0.404337 2.574980 4.500493
v -0.410689 2.574980 4.487303
v -0.422134 2.574980 4.478177
v -0.436406 2.574980 4.474919
v -0.450678 3.061791 4.478177
v -0.462123 3.061791 4.487303
v -0.468474 3.061791 4.500493
v -0.468474 3.061791 4.515131
v -0.462123 3.061791 4.528321
v -0.450677 3.061791 4.537448
v -0.436405 3.061791 4.540705
v -0.422134 3.061791 4.537448
v -0.410689 3.061791 4.528321
v -0.404337 3.061791 4.515131
v -0.404337 3.061791 4.500493
v -0.410689 3.061791 4.487303
v -0.422134 3.061791 4.478177
v -0.436406 3.061791 4.474919
v -0.436406 2.574980 4.507812
v -0.436406 3.061791 4.507812
v 0.435609 2.574980 5.641531
v 0.424164 2.574980 5.650658
v 0.417813 2.574980 5.663847
v 0.417813 2.574980 5.678486
v 0.424164 2.574980 5.691676
v 0.435610 2.574980 5.700802
v 0.449881 2.574980 5.704060
v 0.464153 2.574980 5.700802
v 0.475598 2.574980 5.691676
v 0.481950 2.574980 5.678486
v 0.481950 2.574980 5.663847
v 0.475599 2.574980 5.650658
v 0.464153 2.574980 5.641531
v 0.449881 2.574980 5.638274
v 0.435609 3.061791 5.641531
v 0.424164 3.061791 5.650658
v 0.417813 3.061791 5.663847
v 0.417813 3.061791 5.678486
v 0.424164 3.061791 5.691676
v 0.435610 3.061791 5.700802
v 0.449881 3.061791 5.704060
v 0.464153 3.061791 5.700802
v 0.475598 3.061791 5.691676
v 0.481950 3.061791 5.678486
v 0.481950 3.061791 5.663847
v 0.475599 3.061791 5.650658
v 0.464153 3.061791 5.641531
v 0.449881 3.061791 5.638274
v 0.449881 2.574980 5.671167
v 0.449881 3.061791 5.671167
v 0.508888 2.434323 5.728781
v 0.508888 2.434323 4.435690
v 0.508888 2.571377 5.728781
v 0.508888 2.571377 4.435690
v -0.491112 2.571377 5.728781
v -0.491112 2.571377 4.435690
v -0.491112 2.434323 5.728781
v -0.491112 2.434323 4.435690
v -0.450678 2.574980 5.641531
v -0.462123 2.574980 5.650658
v -0.468474 2.574980 5.663847
v -0.468474 2.574980 5.678486
v -0.462123 2.574980 5.691676
v -0.450677 2.574980 5.700802
v -0.436405 2.574980 5.704060
v -0.422134 2.574980 5.700802
v -0.410689 2.574980 5.691676
v -0.404337 2.574980 5.678486
v -0.404337 2.574980 5.663847
v -0.410689 2.574980 5.650658
v -0.422134 2.574980 5.641531
v -0.436406 2.574980 5.638274
v -0.450678 3.061791 5.641531
v -0.462123 3.061791 5.650658
v -0.468474 3.061791 5.663847
v -0.468474 3.061791 5.678486
v -0.462123 3.061791 5.691676
v -0.450677 3.061791 5.700802
v -0.436405 3.061791 5.704060
v -0.422134 3.061791 5.700802
v -0.410689 3.061791 5.691676
v -0.404337 3.061791 5.678486
v -0.404337 3.061791 5.663847
v -0.410689 3.061791 5.650658
v -0.422134 3.061791 5.641531
v -0.436406 3.061791 5.638274
v -0.436406 2.574980 5.671167
v -0.436406 3.061791 5.671167
v -0.407717 3.061194 5.741800
v -0.407717 3.061194 4.436353
v -0.407717 3.150248 5.741800
v -0.407717 3.150248 4.436353
v -0.515386 3.150248 5.741800
v -0.515386 3.150248 4.436353
v -0.515386 3.061194 5.741800
v -0.515386 3.061194 4.436353
v -0.515386 3.150248 5.631746
v -0.515386 3.061194 5.631746
v -0.407717 3.061194 5.631746
v -0.407717 3.150248 5.631746
v 0.522738 3.061194 5.741800
v 0.522738 3.061194 5.631746
v 0.522738 3.150248 5.631746
v 0.522738 3.150248 5.741800
vt 0.224956 0.426765
vt 0.227751 0.426789
vt 0.226942 0.519740
vt 0.224147 0.519716
vt 0.230546 0.426813
vt 0.229737 0.519765
vt 0.233341 0.426838
vt 0.232532 0.519789
vt 0.236136 0.426862
vt 0.235327 0.519813
vt 0.238931 0.426886
vt 0.238123 0.519838
vt 0.241726 0.426911
vt 0.240918 0.519862
vt 0.244521 0.426935
vt 0.243713 0.519886
vt 0.247317 0.426959
vt 0.246508 0.519910
vt 0.250112 0.426984
vt 0.249303 0.519935
vt 0.252907 0.427008
vt 0.252098 0.519959
vt 0.255702 0.427032
vt 0.254893 0.519983
vt 0.258497 0.427057
vt 0.257688 0.520008
vt 0.261292 0.427081
vt 0.260484 0.520032
vt 0.264087 0.427105
vt 0.263278 0.520056
vt 0.453721 0.042664
vt 0.455455 0.044856
vt 0.449787 0.047561
vt 0.451206 0.041443
vt 0.448411 0.041433
vt 0.445888 0.042637
vt 0.444138 0.044816
vt 0.443506 0.047539
vt 0.444119 0.050266
vt 0.445854 0.052458
vt 0.448368 0.053679
vt 0.451163 0.053689
vt 0.453686 0.052485
vt 0.455436 0.050306
vt 0.456068 0.047583
vt 0.413274 0.050316
vt 0.411520 0.052493
vt 0.407629 0.047563
vt 0.408996 0.053693
vt 0.406201 0.053679
vt 0.403688 0.052454
vt 0.401956 0.050260
vt 0.401348 0.047532
vt 0.401983 0.044810
vt 0.403737 0.042633
vt 0.406261 0.041433
vt 0.409056 0.041447
vt 0.411569 0.042672
vt 0.413301 0.044866
vt 0.413909 0.047594
vt 0.144239 0.432536
vt 0.147034 0.432550
vt 0.146562 0.525503
vt 0.143766 0.525489
vt 0.149829 0.432564
vt 0.149357 0.525517
vt 0.152624 0.432578
vt 0.152152 0.525532
vt 0.155419 0.432593
vt 0.154947 0.525546
vt 0.158215 0.432607
vt 0.157742 0.525560
vt 0.161010 0.432621
vt 0.160537 0.525574
vt 0.163805 0.432635
vt 0.163333 0.525588
vt 0.166600 0.432649
vt 0.166128 0.525603
vt 0.169395 0.432664
vt 0.168923 0.525617
vt 0.172191 0.432678
vt 0.171718 0.525631
vt 0.174986 0.432692
vt 0.174513 0.525645
vt 0.177781 0.432706
vt 0.177308 0.525659
vt 0.180576 0.432720
vt 0.180104 0.525674
vt 0.183371 0.432735
vt 0.182899 0.525688
vt 0.481826 0.042664
vt 0.483561 0.044856
vt 0.477893 0.047561
vt 0.479312 0.041443
vt 0.476517 0.041433
vt 0.473994 0.042637
vt 0.472244 0.044816
vt 0.471612 0.047539
vt 0.472224 0.050266
vt 0.473959 0.052458
vt 0.476473 0.053679
vt 0.479269 0.053689
vt 0.481791 0.052485
vt 0.483542 0.050306
vt 0.484174 0.047583
vt 0.441379 0.050316
vt 0.439626 0.052493
vt 0.435734 0.047563
vt 0.437102 0.053693
vt 0.434306 0.053679
vt 0.431794 0.052454
vt 0.430062 0.050260
vt 0.429453 0.047532
vt 0.430089 0.044810
vt 0.431842 0.042633
vt 0.434367 0.041433
vt 0.437162 0.041447
vt 0.439674 0.042672
vt 0.441406 0.044866
vt 0.442015 0.047594
vt 0.595467 0.968508
vt 0.348557 0.969135
vt 0.348491 0.942965
vt 0.595400 0.942338
vt 0.348006 0.752020
vt 0.594916 0.751393
vt 0.347940 0.725850
vt 0.594849 0.725223
vt 0.347455 0.534905
vt 0.594364 0.534278
vt 0.157612 0.969619
vt 0.157546 0.943450
vt 0.786412 0.968023
vt 0.786345 0.941853
vt 0.077796 0.437684
vt 0.080591 0.437708
vt 0.079782 0.530659
vt 0.076987 0.530635
vt 0.083386 0.437733
vt 0.082577 0.530684
vt 0.086181 0.437757
vt 0.085372 0.530708
vt 0.088976 0.437781
vt 0.088167 0.530732
vt 0.091771 0.437806
vt 0.090962 0.530757
vt 0.094566 0.437830
vt 0.093758 0.530781
vt 0.097361 0.437854
vt 0.096553 0.530805
vt 0.100156 0.437879
vt 0.099348 0.530830
vt 0.102952 0.437903
vt 0.102143 0.530854
vt 0.105747 0.437927
vt 0.104938 0.530878
vt 0.108542 0.437952
vt 0.107733 0.530903
vt 0.111337 0.437976
vt 0.110528 0.530927
vt 0.114132 0.438000
vt 0.113323 0.530951
vt 0.116927 0.438025
vt 0.116118 0.530976
vt 0.467773 0.042664
vt 0.469508 0.044856
vt 0.463840 0.047561
vt 0.465259 0.041443
vt 0.462464 0.041433
vt 0.459941 0.042637
vt 0.458191 0.044816
vt 0.457559 0.047539
vt 0.458172 0.050266
vt 0.459907 0.052458
vt 0.462421 0.053679
vt 0.465216 0.053689
vt 0.467739 0.052485
vt 0.469489 0.050306
vt 0.470121 0.047583
vt 0.427327 0.050316
vt 0.425573 0.052493
vt 0.421681 0.047563
vt 0.423049 0.053693
vt 0.420254 0.053679
vt 0.417741 0.052454
vt 0.416009 0.050260
vt 0.415401 0.047532
vt 0.416036 0.044810
vt 0.417790 0.042633
vt 0.420314 0.041433
vt 0.423109 0.041447
vt 0.425622 0.042672
vt 0.427354 0.044866
vt 0.427962 0.047594
vt 0.938159 0.111762
vt 0.888778 0.984340
vt 0.213087 0.802752
vt 0.955137 0.112722
vt 0.945098 0.290105
vt 0.237877 0.626823
vt 0.240745 0.606466
vt 0.943937 0.310631
vt 0.026234 0.857308
vt 0.024392 0.878242
vt 0.898816 0.806957
vt 0.044872 0.880044
vt 0.911713 0.579067
vt 0.046239 0.629931
vt 0.929852 0.559502
vt 0.011854 0.594975
vt 0.233896 0.805684
vt 0.905755 0.985301
vt 0.258686 0.629755
vt 0.915794 0.807919
vt 0.221855 0.895615
vt 0.223697 0.874681
vt 0.046714 0.859110
vt 0.928121 0.289144
vt 0.928691 0.580028
vt 0.925772 0.330651
vt 0.942749 0.331612
vt 0.014723 0.574617
vt 0.926959 0.309670
vt 0.261554 0.609398
vt 0.912875 0.558541
vt 0.066719 0.631733
vt 0.939347 0.090781
vt 0.956324 0.091742
vn -0.433881 0.000000 -0.900970
vn -0.781826 0.000000 -0.623496
vn -0.781826 0.000000 -0.623496
vn -0.433881 0.000000 -0.900970
vn -0.974928 0.000000 -0.222518
vn -0.974928 0.000000 -0.222518
vn -0.974929 0.000000 0.222515
vn -0.974929 0.000000 0.222515
vn -0.781838 0.000000 0.623482
vn -0.781838 0.000000 0.623482
vn -0.433875 0.000000 0.900973
vn -0.433875 0.000000 0.900973
vn 0.000000 0.000000 1.000000
vn 0.000000 0.000000 1.000000
vn 0.433881 0.000000 0.900970
vn 0.433881 0.000000 0.900970
vn 0.781846 0.000000 0.623471
vn 0.781846 0.000000 0.623471
vn 0.974929 0.000000 0.222515
vn 0.974929 0.000000 0.222515
vn 0.974928 0.000000 -0.222518
vn 0.974928 0.000000 -0.222518
vn 0.781826 0.000000 -0.623496
vn 0.781826 0.000000 -0.623496
vn 0.433875 0.000000 -0.900973
vn 0.433875 0.000000 -0.900973
vn 0.000000 0.000000 -1.000000
vn 0.000000 0.000000 -1.000000
vn 0.000000 -1.000000 0.000000
vn 0.000000 -1.000000 0.000000
vn 0.000000 -1.000000 -0.000001
vn 0.000000 -1.000000 0.000000
vn 0.000000 -1.000000 0.000000
vn 0.000000 -1.000000 -0.000008
vn 0.000000 -1.000000 -0.000005
vn 0.000000 -1.000000 0.000011
vn 0.000000 -1.000000 -0.000008
vn 0.000000 -1.000000 -0.000000
vn 0.000000 -1.000000 0.000016
vn 0.000000 -1.000000 -0.000016
vn 0.000000 -1.000000 -0.000008
vn 0.000000 -1.000000 0.000008
vn 0.000000 -1.000000 0.000000
vn 0.000000 1.000000 0.000000
vn 0.000000 1.000000 0.000000
vn 0.000000 1.000000 0.000000
vn 0.000000 1.000000 0.000000
vn 0.000000 1.000000 0.000000
vn 0.000000 1.000000 0.000000
vn 0.000000 1.000000 0.000000
vn 0.000000 1.000000 0.000001
vn 0.000000 1.000000 0.000001
vn 0.000000 1.000000 0.000000
vn 0.000000 1.000000 0.000000
vn 0.000000 1.000000 0.000000
vn 0.000000 1.000000 0.000000
vn 0.000000 1.000000 0.000000
vn 0.000000 1.000000 0.000000
vn -0.433875 0.000000 -0.900973
vn -0.781833 0.000000 -0.623488
vn -0.781833 0.000000 -0.623488
vn -0.433875 0.000000 -0.900973
vn -0.974929 0.000000 -0.222515
vn -0.974929 0.000000 -0.222515
vn -0.974928 0.000000 0.222518
vn -0.974928 0.000000 0.222518
vn -0.781818 0.000000 0.623507
vn -0.781818 0.000000 0.623507
vn -0.433875 0.000000 0.900973
vn -0.433875 0.000000 0.900973
vn 0.000000 0.000000 1.000000
vn 0.000000 0.000000 1.000000
vn 0.433881 0.000000 0.900970
vn 0.433881 0.000000 0.900970
vn 0.781826 0.000000 0.623496
vn 0.781826 0.000000 0.623496
vn 0.974928 0.000000 0.222518
vn 0.974928 0.000000 0.222518
vn 0.974933 0.000000 -0.222499
vn 0.974933 0.000000 -0.222499
vn 0.781833 0.000000 -0.623488
vn 0.781833 0.000000 -0.623488
vn 0.433875 0.000000 -0.900973
vn 0.433875 0.000000 -0.900973
vn 0.000000 0.000000 -1.000000
vn 0.000000 0.000000 -1.000000
vn 0.000000 -1.000000 -0.000000
vn 0.000000 -1.000000 0.000016
vn 0.000000 -1.000000 0.000002
vn 0.000000 -1.000000 -0.000016
vn 0.000000 -1.000000 0.000016
vn 0.000000 -1.000000 0.000008
vn 0.000000 -1.000000 -0.000008
vn 0.000000 -1.000000 0.000000
vn 0.000000 -1.000000 0.000000
vn 0.000000 -1.000000 0.000000
vn 0.000000 -1.000000 0.000000
vn 0.000000 -1.000000 0.000000
vn 0.000000 -1.000000 0.000008
vn 0.000000 -1.000000 0.000008
vn 0.000000 -1.000000 0.000000
vn 0.000000 1.000000 0.000000
vn 0.000000 1.000000 0.000000
vn 0.000000 1.000000 0.000002
vn 0.000000 1.000000 0.000000
vn 0.000000 1.000000 0.000000
vn 0.000000 1.000000 0.000000
vn 0.000000 1.000000 0.000000
vn 0.000000 1.000000 0.000000
vn 0.000000 1.000000 0.000000
vn 0.000000 1.000000 0.000000
vn 0.000000 1.000000 0.000000
vn 0.000000 1.000000 0.000016
vn 0.000000 1.000000 0.000016
vn 0.000000 1.000000 0.000000
vn 0.000000 1.000000 0.000000
vn 1.000000 0.000000 0.000000
vn 1.000000 0.000000 0.000000
vn 1.000000 0.000000 0.000000
vn 1.000000 0.000000 0.000000
vn 0.000000 1.000000 0.000000
vn 0.000000 1.000000 0.000000
vn 0.000000 1.000000 0.000000
vn 0.000000 1.000000 0.000000
vn -1.000000 0.000000 -0.000000
vn -1.000000 0.000000 -0.000000
vn -1.000000 0.000000 -0.000000
vn -1.000000 0.000000 -0.000000
vn 0.000000 -1.000000 0.000000
vn 0.000000 -1.000000 0.000000
vn 0.000000 -1.000000 0.000000
vn 0.000000 -1.000000 0.000000
vn 0.000000 0.000000 -1.000000
vn 0.000000 0.000000 -1.000000
vn 0.000000 0.000000 -1.000000
vn 0.000000 0.000000 -1.000000
vn 0.000000 0.000000 1.000000
vn 0.000000 0.000000 1.000000
vn 0.000000 0.000000 1.000000
vn 0.000000 0.000000 1.000000
vn -0.433881 0.000000 -0.900970
vn -0.781833 0.000000 -0.623488
vn -0.781833 0.000000 -0.623488
vn -0.433881 0.000000 -0.900970
vn -0.974929 0.000000 -0.222515
vn -0.974929 0.000000 -0.222515
vn -0.974928 0.000000 0.222518
vn -0.974928 0.000000 0.222518
vn -0.781818 0.000000 0.623507
vn -0.781818 0.000000 0.623507
vn -0.433875 0.000000 0.900973
vn -0.433875 0.000000 0.900973
vn 0.000000 0.000000 1.000000
vn 0.000000 0.000000 1.000000
vn 0.433881 0.000000 0.900970
vn 0.433881 0.000000 0.900970
vn 0.781826 0.000000 0.623496
vn 0.781826 0.000000 0.623496
vn 0.974928 0.000000 0.222518
vn 0.974928 0.000000 0.222518
vn 0.974929 0.000000 -0.222515
vn 0.974929 0.000000 -0.222515
vn 0.781833 0.000000 -0.623488
vn 0.781833 0.000000 -0.623488
vn 0.433875 0.000000 -0.900973
vn 0.433875 0.000000 -0.900973
vn 0.000000 0.000000 -1.000000
vn 0.000000 0.000000 -1.000000
vn 0.000000 -1.000000 0.000000
vn 0.000000 -1.000000 0.000000
vn 0.000000 -1.000000 -0.000001
vn 0.000000 -1.000000 0.000000
vn 0.000000 -1.000000 0.000000
vn 0.000000 -1.000000 -0.000008
vn 0.000000 -1.000000 -0.000005
vn 0.000000 -1.000000 0.000011
vn 0.000000 -1.000000 -0.000008
vn 0.000000 -1.000000 0.000000
vn 0.000000 -1.000000 0.000016
vn 0.000000 -1.000000 -0.000016
vn 0.000000 -1.000000 -0.000008
vn 0.000000 -1.000000 0.000008
vn 0.000000 -1.000000 0.000000
vn 0.000000 1.000000 0.000000
vn 0.000000 1.000000 0.000000
vn 0.000000 1.000000 0.000000
vn 0.000000 1.000000 0.000000
vn 0.000000 1.000000 0.000000
vn 0.000000 1.000000 0.000000
vn 0.000000 1.000000 0.000000
vn 0.000000 1.000000 0.000001
vn 0.000000 1.000000 0.000001
vn 0.000000 1.000000 0.000000
vn 0.000000 1.000000 0.000000
vn 0.000000 1.000000 0.000000
vn 0.000000 1.000000 0.000000
vn 0.000000 1.000000 0.000000
vn 0.000000 1.000000 0.000000
vn 1.000000 0.000000 0.000000
vn 1.000000 0.000000 0.000000
vn 1.000000 0.000000 0.000000
vn 1.000000 0.000000 0.000000
vn 0.000000 1.000000 0.000000
vn 0.000000 1.000000 -0.000000
vn 0.000000 1.000000 -0.000000
vn 0.000000 1.000000 0.000000
vn -1.000000 0.000000 0.000000
vn -1.000000 0.000000 -0.000000
vn -1.000000 0.000000 -0.000000
vn -1.000000 0.000000 0.000000
vn 0.000000 -1.000000 0.000003
vn 0.000000 -1.000000 0.000000
vn 0.000000 -1.000000 0.000000
vn 0.000000 -1.000000 0.000003
vn 0.000000 0.000000 -1.000000
vn 0.000000 0.000000 -1.000000
vn 0.000000 0.000000 -1.000000
vn 0.000000 0.000000 -1.000000
vn 0.000000 0.000000 1.000000
vn 0.000000 0.000000 1.000000
vn 0.000000 0.000000 1.000000
vn 0.000000 0.000000 1.000000
vn -1.000000 0.000000 -0.000000
vn -1.000000 0.000000 -0.000000
vn 0.000000 -1.000000 -0.000000
vn 0.000000 -1.000000 -0.000000
vn 1.000000 0.000000 0.000000
vn 1.000000 0.000000 0.000000
vn 1.000000 0.000000 0.000000
vn 1.000000 0.000000 0.000000
vn 0.000000 1.000000 -0.000000
vn 0.000000 1.000000 -0.000000
vn 0.000000 -1.000000 0.000002
vn 0.000000 -1.000000 0.000002
vn 0.000000 -1.000000 0.000002
vn 0.000000 -1.000000 0.000002
vn 0.000000 0.000000 -1.000000
vn 0.000000 0.000000 -1.000000
vn 0.000000 0.000000 -1.000000
vn 0.000000 0.000000 -1.000000
vn 0.000000 1.000000 0.000000
vn 0.000000 1.000000 0.000000
vn 0.000000 1.000000 0.000000
vn 0.000000 1.000000 0.000000
vn 0.000000 0.000000 1.000000
vn 0.000000 0.000000 1.000000
vn 0.000000 0.000000 1.000000
vn 0.000000 0.000000 1.000000
s 1
g polySurface5
usemtl initialShadingGroup
f 1/1/1 2/2/2 16/3/3 15/4/4
f 2/2/2 3/5/5 17/6/6 16/3/3
f 3/5/5 4/7/7 18/8/8 17/6/6
f 4/7/7 5/9/9 19/10/10 18/8/8
f 5/9/9 6/11/11 20/12/12 19/10/10
f 6/11/11 7/13/13 21/14/14 20/12/12
f 7/13/13 8/15/15 22/16/16 21/14/14
f 8/15/15 9/17/17 23/18/18 22/16/16
f 9/17/17 10/19/19 24/20/20 23/18/18
f 10/19/19 11/21/21 25/22/22 24/20/20
f 11/21/21 12/23/23 26/24/24 25/22/22
f 12/23/23 13/25/25 27/26/26 26/24/24
f 13/25/25 14/27/27 28/28/28 27/26/26
f 14/27/27 1/29/1 15/30/4 28/28/28
s 2
f 2/31/29 1/32/30 29/33/31
f 3/34/32 2/31/29 29/33/31
f 4/35/33 3/34/32 29/33/31
f 5/36/34 4/35/33 29/33/31
f 6/37/35 5/36/34 29/33/31
f 7/38/36 6/37/35 29/33/31
f 8/39/37 7/38/36 29/33/31
f 9/40/38 8/39/37 29/33/31
f 10/41/39 9/40/38 29/33/31
f 11/42/40 10/41/39 29/33/31
f 12/43/41 11/42/40 29/33/31
f 13/44/42 12/43/41 29/33/31
f 14/45/43 13/44/42 29/33/31
f 1/32/30 14/45/43 29/33/31
s 3
f 15/46/44 16/47/45 30/48/46
f 16/47/45 17/49/47 30/48/46
f 17/49/47 18/50/48 30/48/46
f 18/50/48 19/51/49 30/48/46
f 19/51/49 20/52/50 30/48/46
f 20/52/50 21/53/51 30/48/46
f 21/53/51 22/54/52 30/48/46
f 22/54/52 23/55/53 30/48/46
f 23/55/53 24/56/54 30/48/46
f 24/56/54 25/57/55 30/48/46
f 25/57/55 26/58/56 30/48/46
f 26/58/56 27/59/57 30/48/46
f 27/59/57 28/60/58 30/48/46
f 28/60/58 15/46/44 30/48/46
s 4
f 31/61/59 32/62/60 46/63/61 45/64/62
f 32/62/60 33/65/63 47/66/64 46/63/61
f 33/65/63 34/67/65 48/68/66 47/66/64
f 34/67/65 35/69/67 49/70/68 48/68/66
f 35/69/67 36/71/69 50/72/70 49/70/68
f 36/71/69 37/73/71 51/74/72 50/72/70
f 37/73/71 38/75/73 52/76/74 51/74/72
f 38/75/73 39/77/75 53/78/76 52/76/74
f 39/77/75 40/79/77 54/80/78 53/78/76
f 40/79/77 41/81/79 55/82/80 54/80/78
f 41/81/79 42/83/81 56/84/82 55/82/80
f 42/83/81 43/85/83 57/86/84 56/84/82
f 43/85/83 44/87/85 58/88/86 57/86/84
f 44/87/85 31/89/59 45/90/62 58/88/86
s 5
f 32/91/87 31/92/88 59/93/89
f 33/94/90 32/91/87 59/93/89
f 34/95/91 33/94/90 59/93/89
f 35/96/92 34/95/91 59/93/89
f 36/97/93 35/96/92 59/93/89
f 37/98/94 36/97/93 59/93/89
f 38/99/95 37/98/94 59/93/89
f 39/100/96 38/99/95 59/93/89
f 40/101/97 39/100/96 59/93/89
f 41/102/98 40/101/97 59/93/89
f 42/103/99 41/102/98 59/93/89
f 43/104/100 42/103/99 59/93/89
f 44/105/101 43/104/100 59/93/89
f 31/92/88 44/105/101 59/93/89
s 6
f 45/106/102 46/107/103 60/108/104
f 46/107/103 47/109/105 60/108/104
f 47/109/105 48/110/106 60/108/104
f 48/110/106 49/111/107 60/108/104
f 49/111/107 50/112/108 60/108/104
f 50/112/108 51/113/109 60/108/104
f 51/113/109 52/114/110 60/108/104
f 52/114/110 53/115/111 60/108/104
f 53/115/111 54/116/112 60/108/104
f 54/116/112 55/117/113 60/108/104
f 55/117/113 56/118/114 60/108/104
f 56/118/114 57/119/115 60/108/104
f 57/119/115 58/120/116 60/108/104
f 58/120/116 45/106/102 60/108/104
s off
f 61/121/117 62/122/118 64/123/119 63/124/120
f 63/124/121 64/123/122 66/125/123 65/126/124
f 65/126/125 66/125/126 68/127/127 67/128/128
f 67/128/129 68/127/130 62/129/131 61/130/132
f 62/122/133 68/131/134 66/132/135 64/123/136
f 67/133/137 61/121/138 63/124/139 65/134/140
s 7
f 69/135/141 70/136/142 84/137/143 83/138/144
f 70/136/142 71/139/145 85/140/146 84/137/143
f 71/139/145 72/141/147 86/142/148 85/140/146
f 72/141/147 73/143/149 87/144/150 86/142/148
f 73/143/149 74/145/151 88/146/152 87/144/150
f 74/145/151 75/147/153 89/148/154 88/146/152
f 75/147/153 76/149/155 90/150/156 89/148/154
f 76/149/155 77/151/157 91/152/158 90/150/156
f 77/151/157 78/153/159 92/154/160 91/152/158
f 78/153/159 79/155/161 93/156/162 92/154/160
f 79/155/161 80/157/163 94/158/164 93/156/162
f 80/157/163 81/159/165 95/160/166 94/158/164
f 81/159/165 82/161/167 96/162/168 95/160/166
f 82/161/167 69/163/141 83/164/144 96/162/168
s 8
f 70/165/169 69/166/170 97/167/171
f 71/168/172 70/165/169 97/167/171
f 72/169/173 71/168/172 97/167/171
f 73/170/174 72/169/173 97/167/171
f 74/171/175 73/170/174 97/167/171
f 75/172/176 74/171/175 97/167/171
f 76/173/177 75/172/176 97/167/171
f 77/174/178 76/173/177 97/167/171
f 78/175/179 77/174/178 97/167/171
f 79/176/180 78/175/179 97/167/171
f 80/177/181 79/176/180 97/167/171
f 81/178/182 80/177/181 97/167/171
f 82/179/183 81/178/182 97/167/171
f 69/166/170 82/179/183 97/167/171
s 9
f 83/180/184 84/181/185 98/182/186
f 84/181/185 85/183/187 98/182/186
f 85/183/187 86/184/188 98/182/186
f 86/184/188 87/185/189 98/182/186
f 87/185/189 88/186/190 98/182/186
f 88/186/190 89/187/191 98/182/186
f 89/187/191 90/188/192 98/182/186
f 90/188/192 91/189/193 98/182/186
f 91/189/193 92/190/194 98/182/186
f 92/190/194 93/191/195 98/182/186
f 93/191/195 94/192/196 98/182/186
f 94/192/196 95/193/197 98/182/186
f 95/193/197 96/194/198 98/182/186
f 96/194/198 83/180/184 98/182/186
s off
f 111/195/199 112/227/200 113/228/201 114/198/202
s 10
f 101/213/203 110/200/204 107/201/205 103/224/206
s 11
f 103/202/207 107/221/208 108/220/209 105/223/210
s 12
f 105/204/211 108/203/212 109/217/213 99/206/214
s off
f 100/207/215 106/225/216 104/209/217 102/219/218
f 105/223/219 99/218/220 101/199/221 103/202/222
s 11
f 107/221/208 104/209/223 106/225/224 108/220/209
s 12
f 109/217/213 108/203/212 106/208/225 100/226/226
s off
f 110/214/227 109/205/228 100/207/229 102/219/230
s 10
f 107/201/205 110/200/204 102/210/231 104/222/232
s off
f 99/206/233 109/217/234 112/216/235 111/215/236
f 109/205/237 110/214/238 113/212/239 112/196/240
f 110/200/241 101/213/242 114/211/243 113/197/244
f 101/199/245 99/218/246 111/195/247 114/198/248
