# This file uses centimeters as units for non-parametric coordinates.

mtllib office.mtl
g default
v -12.315813 1.289437 2.716231
v -9.495421 1.289437 2.716231
v -12.439236 2.085275 3.024168
v -9.371998 2.085275 3.024168
v -12.439236 2.085275 -5.158639
v -9.371998 2.085275 -5.158639
v -12.315813 1.607538 -4.491972
v -9.495421 1.607538 -4.491972
v -12.603022 1.414597 3.461121
v -9.208212 1.414597 3.461121
v -9.208212 1.750499 3.461121
v -12.603022 1.750499 3.461121
v -12.603022 1.750499 -5.595589
v -9.208212 1.750499 -5.595589
v -9.208212 1.414597 -5.595589
v -12.603022 1.414597 -5.595589
v -12.487298 -0.028964 3.152391
v -9.323936 -0.028964 3.152391
v -9.208212 -0.028964 3.461121
v -12.603022 -0.028964 3.461121
v -12.487298 -0.028963 -5.286863
v -9.323936 -0.028963 -5.286863
v -12.603022 -0.028963 -5.595589
v -9.208212 -0.028963 -5.595589
v -11.195711 1.646931 -3.554085
v -10.615524 1.646931 -3.554085
v -10.615524 1.646931 1.419613
v -11.195711 1.646931 1.419613
v -11.119129 1.503186 -3.554085
v -10.692106 1.503186 -3.554085
v -10.692106 1.503186 1.419613
v -11.119129 1.503186 1.419613
v -12.506200 1.075560 -3.908568
v -12.506200 1.075560 1.774097
v -12.506200 0.696247 1.774097
v -12.506200 0.696247 -3.908568
v -12.584124 1.075560 -4.116456
v -12.584124 1.075560 1.981985
v -12.584124 0.696066 -4.116456
v -12.584124 0.696066 1.981985
v -11.309551 -0.028963 -4.813985
v -10.501686 -0.028963 -4.813985
v -11.346382 -0.184037 -5.571429
v -10.485272 -0.184037 -5.571429
v -11.309551 1.269763 -5.276272
v -10.501686 1.269763 -5.276272
v -11.346382 1.298930 -5.571458
v -10.485272 1.298930 -5.571458
v -9.379428 -0.458181 3.004345
v -12.431803 -0.458181 3.004345
v -11.346379 -0.458180 -5.117086
v -10.485272 -0.458180 -5.117086
v -9.379428 -0.458180 -5.138807
v -12.431803 -0.458180 -5.138807
v -11.309551 -0.184035 -5.311021
v -10.501686 -0.184035 -5.311021
v -11.166132 -0.028964 -0.339105
v -10.645100 -0.028964 -0.339105
v -10.796867 -0.028964 -1.497328
v -11.014370 -0.028964 -1.497328
v -10.972150 -0.028964 -1.819526
v -10.839086 -0.028964 -1.819526
v -11.339106 0.148376 -5.571429
v -12.603022 0.162989 -5.595589
v -12.584124 0.746515 -4.116456
v -12.506200 0.746697 -3.908568
v -12.487298 0.146346 -5.286863
v -11.309551 0.288530 -5.311021
v -10.472132 0.148816 -5.571429
v -9.208212 0.163465 -5.595589
v -9.208212 0.163464 3.461121
v -12.603022 0.163464 3.461121
v -12.584124 0.746641 1.981985
v -12.506200 0.746822 1.774097
v -12.487298 0.146780 3.152391
v -9.323936 0.146780 3.152391
v -9.323936 0.146781 -5.286863
v -10.501686 0.288917 -5.311021
v -11.346382 1.414597 -5.595589
v -11.346382 1.750499 -5.595589
v -11.346382 2.085275 -5.158639
v -11.346382 2.085275 3.024168
v -11.346382 1.750499 3.461121
v -11.346382 1.414597 3.461121
v -11.346379 0.163464 3.461121
v -11.346379 -0.028964 3.461121
v -11.346379 -0.458181 3.004345
v -10.485272 -0.458181 3.004345
v -10.485272 -0.028964 3.461121
v -10.485272 0.163464 3.461121
v -10.485272 1.414597 3.461121
v -10.485272 1.750499 3.461121
v -10.485272 2.085275 3.024168
v -10.485269 2.085275 -5.158639
v -10.485272 1.750499 -5.595589
v -10.485272 1.414597 -5.595589
vt 0.908784 0.766362
vt 0.513665 0.246756
vt 0.058452 0.755656
vt 0.646079 0.383852
vt 0.906356 0.565544
vt 0.309810 0.891267
vt 0.549658 0.171154
vt 0.447676 0.173148
vt 0.499108 0.411122
vt 0.499108 0.430840
vt 0.331309 0.430840
vt 0.936715 0.383852
vt 0.016083 0.248770
vt 0.372352 0.755761
vt 0.372716 0.767179
vt 0.936715 0.394973
vt 0.646079 0.394973
vt 0.058052 0.767656
vt 0.162314 0.877544
vt 0.162272 0.891499
vt 0.126445 0.891254
vt 0.126404 0.877377
vt 0.923427 0.412536
vt 0.656549 0.412536
vt 0.355970 0.778316
vt 0.075830 0.779245
vt 0.331309 0.411122
vt 0.085658 0.173148
vt 0.936715 0.344731
vt 0.109843 0.743749
vt 0.516433 0.354842
vt 0.505190 0.355852
vt 0.160717 0.910456
vt 0.516422 0.370498
vt 0.646079 0.344731
vt 0.134285 0.146642
vt 0.321017 0.744210
vt 0.509476 0.407452
vt 0.499189 0.446614
vt 0.587927 0.856797
vt 0.322794 0.434661
vt 0.331176 0.397485
vt 0.664647 0.765909
vt 0.055401 0.655576
vt 0.336068 0.346283
vt 0.419584 0.139372
vt 0.349794 0.343256
vt 0.064611 0.092851
vt 0.381143 0.369907
vt 0.382901 0.371712
vt 0.382456 0.353506
vt 0.381158 0.356090
vt 0.381135 0.368070
vt 0.507283 0.368431
vt 0.062988 0.561425
vt 0.335591 0.359558
vt 0.547947 0.104102
vt 0.129034 0.569281
vt 0.327944 0.359636
vt 0.327964 0.366112
vt 0.904916 0.678133
vt 0.309769 0.878426
vt 0.661682 0.677283
vt 0.661935 0.651515
vt 0.059927 0.711460
vt 0.110509 0.732227
vt 0.060151 0.704753
vt 0.128734 0.910198
vt 0.350105 0.339759
vt 0.575670 0.170349
vt 0.550265 0.216588
vt 0.576304 0.216198
vt 0.550348 0.283640
vt 1.026180 0.095769
vt 1.030051 0.275255
vt 0.830239 0.203619
vt 0.829702 0.174053
vt 0.128900 0.624889
vt 0.764342 0.196151
vt 0.764131 0.183808
vt 0.332044 0.345885
vt 0.349794 0.341628
vt 0.332043 0.361451
vt 0.243988 0.550251
vt 0.664565 0.752218
vt 0.370810 0.707302
vt 0.320237 0.731360
vt 0.110606 0.730466
vt 0.371014 0.713705
vt 0.320348 0.733069
vt 0.904844 0.652363
vt 0.342873 0.878455
vt 0.663564 0.569784
vt 0.342842 0.891309
vt 0.342311 0.901544
vt 0.310898 0.901495
vt 0.343007 0.822574
vt 0.079231 0.691203
vt 0.162235 0.872564
vt 0.342989 0.830084
vt 0.309616 0.830105
vt 0.309592 0.822603
vt 0.342506 0.807981
vt 0.663190 0.544239
vt 0.126529 0.872426
vt 0.646079 0.337967
vt 0.936715 0.337967
vt 0.352835 0.694028
vt 0.073287 0.825315
vt 0.073193 0.817266
vt 0.126349 0.810692
vt 0.125844 0.824660
vt 0.216091 0.824770
vt 0.905838 0.540005
vt 0.310664 0.808022
vt 0.271118 0.901432
vt 0.261725 0.891206
vt 0.261581 0.878385
vt 0.261036 0.830135
vt 0.260951 0.822645
vt 0.270617 0.808075
vt 0.392690 0.822532
vt 0.215462 0.877790
vt 0.162074 0.824506
vt 0.162422 0.810477
vt 0.128685 0.794872
vt 0.160849 0.794649
vt 0.216188 0.816556
vt 0.202152 0.794128
vt 0.087541 0.794928
vt 0.073892 0.877134
vt 0.215295 0.891862
vt 0.201779 0.910788
vt 0.087862 0.909867
vt 0.016357 0.238625
vt 0.331537 0.361544
vt 0.064687 0.084070
vt 0.745886 0.186523
vt 0.335636 0.338078
vt 0.332027 0.365948
vt 0.513374 0.236311
vt 0.133158 0.120385
vt 0.132950 0.122915
vt 0.746013 0.194074
vt 0.665819 0.861218
vt 0.908864 0.752858
vt 0.493107 0.315240
vt 0.486577 0.084201
vt 0.055628 0.334373
vt 0.462343 0.857236
vt 0.512130 0.814846
vt 0.537845 0.814756
vt 0.243921 0.560485
vt 0.908871 0.860371
vt 0.174942 0.569130
vt 0.175003 0.542095
vt 0.459375 0.531019
vt 0.062942 0.551560
vt 0.511400 0.594760
vt 0.129019 0.542503
vt 0.253074 0.658101
vt 0.175025 0.625202
vt 0.499073 0.397485
vt 0.509476 0.434206
vt 0.331431 0.446614
vt 0.323271 0.407664
vt 0.350105 0.338078
vt 0.335585 0.365951
vt 0.664039 0.602246
vt 0.907013 0.598001
vt 0.074053 0.890896
vt 0.662707 0.511259
vt 0.662253 0.619133
vt 0.383489 0.807927
vt 0.652655 0.310183
vt 0.920976 0.310183
vt 0.392610 0.830053
vt 0.392092 0.878497
vt 0.905401 0.619980
vt 0.661355 0.710476
vt 0.391954 0.891370
vt 0.905169 0.507031
vt 0.905661 0.711330
vt 0.383014 0.901608
vt 0.516445 0.368410
vt 0.418161 0.120419
vt 0.373052 0.368046
vt 0.504391 0.369481
vt 0.486652 0.092940
vt 0.418387 0.122938
vt 0.373076 0.356073
vt 0.505190 0.353506
vt 0.588617 0.530569
vt 0.537039 0.594671
vt 0.543921 0.898270
vt 0.506638 0.898400
vt 0.382456 0.355852
vt 0.507268 0.354854
vt 0.382901 0.369481
vt 0.507260 0.370518
vt 0.373060 0.369883
vt 0.504391 0.371712
vt 0.331536 0.366102
vt 0.335636 0.339759
vt 0.327429 0.346207
vt 0.331476 0.345797
vt 0.335558 0.343256
vt 0.335558 0.341628
vn 0.000000 0.000000 1.000000
vn 0.000000 0.000000 1.000000
vn 0.000000 0.000000 1.000000
vn 0.000000 0.000000 1.000000
vn 0.000000 1.000000 0.000000
vn 0.000000 1.000000 0.000000
vn 0.000000 1.000000 0.000000
vn 0.000000 1.000000 0.000000
vn 0.000000 0.000000 -1.000000
vn 0.000000 0.000000 -1.000000
vn 0.000000 0.000000 -1.000000
vn 0.000000 0.000000 -1.000000
vn 0.000000 -1.000000 0.000000
vn 0.000000 -1.000000 0.000000
vn 0.000000 -1.000000 0.000000
vn 0.000000 -1.000000 0.000000
vn 1.000000 0.000000 0.000000
vn 1.000000 0.000000 0.000000
vn 1.000000 0.000000 0.000000
vn 1.000000 0.000000 0.000000
vn -1.000000 0.000000 0.000000
vn -1.000000 0.000000 0.000000
vn -1.000000 0.000000 0.000000
vn -1.000000 0.000000 0.000000
vn 0.000000 0.793801 0.608178
vn 0.000000 0.793801 0.608178
vn 0.000000 0.793801 0.608178
vn 0.000000 0.793801 0.608178
vn 0.000000 0.793799 -0.608181
vn 0.000000 0.793799 -0.608181
vn 0.000000 0.793799 -0.608181
vn 0.000000 0.793798 -0.608181
vn 0.898260 0.439465 0.000000
vn 0.898260 0.439465 0.000000
vn 0.898260 0.439465 0.000000
vn 0.898260 0.439465 0.000000
vn -0.898259 0.439466 0.000000
vn -0.898259 0.439466 0.000000
vn -0.898259 0.439466 0.000000
vn -0.898259 0.439466 0.000000
vn 0.000000 -0.311913 -0.950111
vn 0.000000 -0.311913 -0.950111
vn 0.000000 0.000000 -1.000000
vn 0.000000 0.000000 -1.000000
vn 0.000000 0.000000 1.000000
vn 0.000000 0.000000 1.000000
vn 0.000000 0.000000 1.000000
vn 0.000000 0.000000 1.000000
vn -0.993483 -0.113956 -0.002317
vn -0.993483 -0.113954 -0.002317
vn -1.000000 0.000000 0.000000
vn -1.000000 0.000000 0.000000
vn 1.000000 0.000000 0.000000
vn 1.000000 0.000000 0.000000
vn 1.000000 0.000000 0.000000
vn 1.000000 0.000000 0.000000
vn 0.000000 -0.999119 0.041965
vn 0.000000 -0.999119 0.041965
vn 0.000000 -0.999119 0.041965
vn 0.000000 -0.999119 0.041965
vn -0.170396 -0.985040 -0.025722
vn -0.170396 -0.985040 -0.025722
vn -0.170396 -0.985040 -0.025722
vn -0.170396 -0.985040 -0.025722
vn 0.000000 -0.964030 -0.265795
vn 0.000000 -0.964030 -0.265795
vn 0.000000 -0.964030 -0.265795
vn 0.000000 -0.964030 -0.265795
vn 0.170396 -0.985040 -0.025722
vn 0.170396 -0.985040 -0.025722
vn 0.170396 -0.985040 -0.025722
vn 0.170396 -0.985040 -0.025722
vn 0.000000 0.000000 -1.000000
vn 0.000000 0.000000 -1.000000
vn 0.000000 0.000000 -1.000000
vn 0.000000 0.000000 -1.000000
vn 0.882560 -0.470199 0.000000
vn 0.882560 -0.470199 0.000000
vn 0.882560 -0.470199 0.000000
vn 0.882560 -0.470199 0.000000
vn 0.000000 0.000000 1.000000
vn 0.000000 0.000000 1.000000
vn 0.000000 0.000000 1.000000
vn 0.000000 0.000000 1.000000
vn -0.882562 -0.470196 0.000000
vn -0.882562 -0.470196 0.000000
vn -0.882562 -0.470196 0.000000
vn -0.882562 -0.470196 0.000000
vn 0.892748 -0.450419 -0.011115
vn 0.892748 -0.450419 -0.011115
vn 0.892748 -0.450419 -0.011115
vn 0.892748 -0.450419 -0.011115
vn 0.999895 -0.001070 -0.014434
vn 0.999906 0.000000 -0.013713
vn 0.999906 0.000000 -0.013713
vn 0.982480 -0.148031 -0.113226
vn 0.999660 0.026055 0.000000
vn 0.999660 0.026055 0.000000
vn 0.999660 0.026055 0.000000
vn 0.999660 0.026055 0.000000
vn 0.999896 -0.000999 0.014386
vn 0.983594 -0.143039 0.109923
vn 0.983594 -0.143039 0.109923
vn 0.983603 -0.142999 0.109896
vn -0.998450 -0.055654 0.000000
vn -0.998450 -0.055654 0.000000
vn -0.998450 -0.055654 0.000000
vn -0.998450 -0.055654 0.000000
vn -0.999918 0.000000 0.012775
vn -0.999918 0.000000 0.012775
vn -0.999918 0.000000 0.012775
vn -0.999918 0.000000 0.012775
vn -0.999660 0.026056 0.000000
vn -0.999660 0.026056 0.000000
vn -0.999660 0.026056 0.000000
vn -0.999660 0.026056 0.000000
vn -0.999918 0.000000 -0.012775
vn -0.999918 0.000000 -0.012775
vn -0.999918 0.000000 -0.012775
vn -0.999918 0.000000 -0.012775
vn -0.002329 0.999997 0.000000
vn -0.002329 0.999997 0.000000
vn -0.002329 0.999997 0.000000
vn -0.002329 0.999997 0.000000
vn 0.000000 -1.000000 0.000000
vn 0.000000 -1.000000 0.000000
vn 0.000000 -1.000000 0.000000
vn 0.000000 -1.000000 0.000000
vn -0.936380 0.000000 0.350988
vn -0.936380 0.000000 0.350988
vn -0.936380 0.000000 0.350988
vn -0.936380 0.000000 0.350988
vn -0.936380 0.000000 -0.350987
vn -0.936380 0.000000 -0.350988
vn -0.936380 0.000000 -0.350988
vn -0.936380 0.000000 -0.350987
vn 0.000000 -0.918446 0.395547
vn 0.000000 -0.918446 0.395547
vn 0.000000 -0.918446 0.395547
vn 0.000000 -0.918446 0.395547
vn 0.302464 -0.325536 0.895847
vn 0.036712 -0.018582 0.999153
vn 0.301468 -0.324377 0.896603
vn 0.302464 -0.325536 0.895847
vn -0.070515 0.392698 0.916960
vn -0.036691 -0.018566 0.999154
vn -0.301440 -0.324473 0.896578
vn -0.107820 0.710553 0.695334
vn 0.000000 -0.204230 -0.978923
vn 0.000000 -0.204230 -0.978923
vn 0.000000 -0.204230 -0.978923
vn 0.000000 -0.204230 -0.978923
vn -0.018998 -0.000094 -0.999820
vn -0.019045 0.000476 -0.999818
vn -0.019045 0.000476 -0.999819
vn -0.019023 0.000214 -0.999819
vn 0.019158 0.000035 -0.999817
vn 0.019158 0.000046 -0.999817
vn 0.019158 0.000046 -0.999817
vn 0.019153 -0.000127 -0.999817
vn 0.000000 -0.728749 0.684781
vn 0.000000 -0.728749 0.684781
vn 0.000000 -0.728749 0.684781
vn 0.000000 -0.728749 0.684781
vn 0.000000 -0.856212 -0.516625
vn 0.000000 -0.856212 -0.516625
vn 0.000000 -0.856212 -0.516625
vn 0.000000 -0.856212 -0.516625
vn 0.928828 -0.370512 -0.000000
vn 0.928828 -0.370512 -0.000000
vn 0.928828 -0.370512 -0.000000
vn 0.928828 -0.370512 -0.000000
vn -0.928826 -0.370517 -0.000000
vn -0.928826 -0.370517 -0.000000
vn -0.928826 -0.370517 -0.000000
vn -0.928826 -0.370517 -0.000000
vn -0.040746 -0.794607 -0.605755
vn -0.040746 -0.794607 -0.605755
vn -0.040746 -0.794607 -0.605755
vn -0.040746 -0.794607 -0.605755
vn 0.040043 -0.794566 -0.605856
vn 0.040043 -0.794566 -0.605856
vn 0.040043 -0.794566 -0.605856
vn 0.040043 -0.794566 -0.605856
vn 0.107884 0.711129 0.694735
vn 0.070573 0.393173 0.916752
vn 0.118737 0.947864 -0.295727
vn 0.000000 0.954618 -0.297834
vn 0.000000 0.954618 -0.297834
vn 0.000000 0.954618 -0.297834
vn 0.000000 0.954618 -0.297834
vn -0.118737 0.947865 -0.295727
vn 0.000000 1.000000 0.000000
vn 0.000000 1.000000 0.000000
vn 0.000000 1.000000 0.000000
vn 0.000000 1.000000 0.000000
vn 0.000000 1.000000 0.000000
vn 0.000000 1.000000 0.000000
vn 0.000000 1.000000 0.000000
vn 0.000000 1.000000 0.000000
vn -0.000000 1.000000 0.000000
vn -0.000000 1.000000 0.000000
vn -0.000000 1.000000 0.000000
vn -0.000000 1.000000 0.000000
vn -0.000000 1.000000 0.000000
vn -0.000000 1.000000 0.000000
vn -0.000000 1.000000 0.000000
vn -0.000000 1.000000 0.000000
vn 0.000000 1.000000 0.000000
vn 0.000000 1.000000 0.000000
vn 0.000000 1.000000 0.000000
vn 0.000000 1.000000 0.000000
vn 0.000000 1.000000 0.000000
vn 0.000000 1.000000 0.000000
vn 0.000000 1.000000 0.000000
vn 0.000000 1.000000 0.000000
vn 0.000000 1.000000 0.000000
vn 0.000000 1.000000 0.000000
vn 0.000000 1.000000 -0.000000
vn 0.000000 1.000000 -0.000000
vn 0.000000 1.000000 -0.000000
vn 0.000000 1.000000 -0.000000
vn 0.019149 -0.000266 -0.999817
vn 0.019149 -0.000266 -0.999817
vn -0.999918 0.000000 0.012775
vn -0.999918 0.000000 0.012775
vn -0.936380 0.000000 0.350989
vn -0.936380 0.000000 0.350989
vn 0.999906 0.000000 0.013713
vn 0.999906 0.000000 0.013713
vn -0.018996 -0.000116 -0.999820
vn -0.018996 -0.000116 -0.999820
vn 1.000000 0.000000 0.000000
vn 1.000000 0.000000 0.000000
vn 0.000000 0.000000 1.000000
vn 0.000000 0.000000 1.000000
vn -0.999918 0.000000 -0.012775
vn -0.999918 0.000000 -0.012775
vn -0.936380 0.000000 -0.350987
vn -0.936380 0.000000 -0.350987
vn 0.982470 -0.148075 -0.113255
vn 0.982470 -0.148075 -0.113255
vn 0.000000 -0.356611 -0.934253
vn 0.000000 -0.356611 -0.934253
vn -0.991477 -0.130251 -0.002648
vn -0.991477 -0.130251 -0.002648
vn -0.302437 -0.325635 0.895820
vn -0.302437 -0.325635 0.895820
vn 0.000000 -0.995154 -0.098329
vn 0.000000 -0.995154 -0.098329
vn 0.000000 -0.995154 -0.098329
vn 0.000000 -0.995154 -0.098329
vn 0.992797 0.005338 -0.119691
vn 0.992797 0.005338 -0.119691
vn 0.992797 0.005338 -0.119691
vn 0.992797 0.005338 -0.119691
vn -0.996662 -0.004818 -0.081500
vn -0.996662 -0.004818 -0.081500
vn -0.996662 -0.004818 -0.081500
vn -0.996662 -0.004818 -0.081500
vn -0.995604 0.016235 -0.092242
vn -0.995604 0.016235 -0.092242
vn -0.995604 0.016235 -0.092242
vn -0.995604 0.016235 -0.092242
vn 0.992234 -0.008969 -0.124060
vn 0.992234 -0.008969 -0.124060
vn 0.992234 -0.008969 -0.124060
vn 0.992234 -0.008969 -0.124060
vn 0.000000 1.000000 -0.000006
vn 0.000000 1.000000 -0.000006
vn 0.000000 1.000000 -0.000006
vn 0.000000 1.000000 -0.000006
vn -0.000000 -1.000000 -0.000000
vn -0.000000 -1.000000 -0.000000
vn 0.000000 -1.000000 -0.000000
vn 0.000000 -1.000000 -0.000000
vn 0.000000 -0.204230 -0.978923
vn 0.000000 0.000000 -1.000000
vn 0.000000 0.000000 -1.000000
vn 0.000000 0.793799 -0.608181
vn 0.000000 0.793799 -0.608181
vn 0.000000 1.000000 0.000000
vn 0.000000 1.000000 0.000000
vn 0.000000 0.793801 0.608178
vn 0.000000 0.793801 0.608178
vn 0.000000 0.000000 1.000000
vn 0.000000 0.000000 1.000000
vn 0.000000 0.000000 1.000000
vn 0.000000 0.000000 1.000000
vn 0.000000 0.000000 1.000000
vn 0.000000 -0.728749 0.684781
vn 0.000000 -0.728749 0.684781
vn 0.000000 -1.000000 -0.000000
vn 0.000000 -1.000000 -0.000000
vn -0.000000 -1.000000 -0.000000
vn -0.000000 -1.000000 -0.000000
vn 0.000000 -0.728749 0.684781
vn 0.000000 -0.728749 0.684781
vn 0.000000 0.000000 1.000000
vn 0.000000 0.000000 1.000000
vn 0.000000 0.000000 1.000000
vn 0.000000 0.000000 1.000000
vn 0.000000 0.000000 1.000000
vn 0.000000 0.793801 0.608178
vn 0.000000 0.793801 0.608178
vn 0.000000 1.000000 0.000000
vn 0.000000 1.000000 0.000000
vn 0.000000 0.793799 -0.608181
vn 0.000000 0.793799 -0.608181
vn 0.000000 0.000000 -1.000000
vn 0.000000 0.000000 -1.000000
vn 0.000000 -0.204230 -0.978923
s 1
g pCube38
usemtl initialShadingGroup
f 83/6/1 84/62/2 91/92/3 92/94/4
s 2
f 81/5/5 82/93/6 93/104/7 94/114/8
s 3
f 79/19/9 80/20/10 95/21/11 96/22/12
s off
f 29/9/13 30/10/14 31/11/15 32/27/16
f 10/4/17 15/12/18 14/16/19 11/17/20
f 16/3/21 9/14/22 12/15/23 13/18/24
s 4
f 92/94/25 93/95/26 82/96/27 83/6/28
s 5
f 80/20/29 81/33/30 94/68/31 95/21/32
s off
f 6/23/33 4/24/34 11/17/35 14/16/36
f 3/25/37 5/26/38 13/18/39 12/15/40
s 6
f 75/1/41 76/43/42 18/85/43 17/146/44
s 7
f 89/97/45 90/100/46 85/101/47 86/102/48
s 8
f 76/2/49 77/13/50 22/135/51 18/141/52
s 9
f 70/29/53 71/35/54 19/106/55 24/107/56
s off
f 7/40/57 8/150/58 26/151/59 25/152/60
f 8/150/61 2/157/62 27/159/63 26/151/64
f 2/157/65 1/193/66 28/194/67 27/159/68
f 1/193/69 7/40/70 25/152/71 28/194/72
f 25/38/73 26/164/74 30/10/75 29/9/76
f 26/39/77 27/165/78 31/11/79 30/10/80
f 27/41/81 28/166/82 32/27/83 31/11/84
f 28/42/85 25/163/86 29/9/87 32/27/88
f 7/8/89 1/28/90 34/36/91 33/46/92
s 10
f 75/48/93 17/137/94 35/142/95 74/143/96
s off
f 17/137/97 21/148/98 36/186/99 35/142/100
s 11
f 67/189/101 7/8/102 33/46/103 66/190/104
s off
f 9/14/105 16/3/106 37/30/107 38/37/108
s 12
f 16/3/109 64/65/110 65/66/111 37/30/112
s off
f 23/67/113 20/86/114 40/87/115 39/88/116
s 13
f 20/86/117 72/89/118 73/90/119 40/87/120
s off
f 35/199/121 36/188/122 39/202/123 40/50/124
f 33/32/125 34/197/126 38/51/127 37/192/128
s 14
f 66/187/129 33/191/130 37/52/131 65/53/132
s 15
f 74/185/133 35/34/134 40/200/135 73/54/136
s off
f 8/150/137 7/40/138 45/195/139 46/196/140
s 16
f 7/44/141 67/55/142 68/58/143 45/78/144
s 17
f 22/84/145 77/153/146 78/155/147 56/156/148
s 18
f 47/99/149 79/19/150 96/22/151 48/105/152
s 19
f 70/109/153 24/110/154 44/111/155 69/112/156
s 20
f 64/113/157 16/123/158 47/99/159 63/124/160
s 21
f 88/103/161 89/97/162 86/102/163 87/115/164
s off
f 43/125/165 44/111/166 52/126/167 51/127/168
f 24/107/169 19/106/170 49/175/171 53/176/172
f 20/86/173 23/67/174 54/98/175 50/108/176
f 23/128/177 43/125/178 51/127/179 54/129/180
f 44/111/181 24/110/182 53/130/183 52/126/184
s 16
f 55/7/185 21/57/186 41/70/187
s off
f 56/71/188 55/7/189 41/70/190 42/72/191
s 17
f 22/73/145 56/71/148 42/72/192
s off
f 17/74/193 18/75/194 58/76/195 57/77/196
f 18/75/197 22/73/198 59/79/199 58/76/200
f 21/57/201 17/74/202 57/77/203 60/80/204
f 41/70/205 21/57/206 60/80/207 61/138/208
f 22/73/209 42/72/210 62/144/211 59/79/212
f 42/72/213 41/70/214 61/138/215 62/144/216
s 22
f 57/77/217 58/76/218 59/79/219 60/80/220
f 60/80/220 59/79/219 62/144/221 61/138/222
s 20
f 23/128/223 64/113/157 63/124/160 43/125/224
s 12
f 65/66/111 64/65/110 23/67/225 39/88/226
s 14
f 36/201/227 66/187/129 65/53/132 39/49/228
s 11
f 21/148/229 67/189/101 66/190/104 36/186/230
s 16
f 68/58/143 67/55/142 21/158/186 55/160/185
s 19
f 15/131/231 70/109/153 69/112/156 48/105/232
s 9
f 15/12/233 10/4/234 71/35/54 70/29/53
s 7
f 90/100/46 91/92/235 84/62/236 85/101/47
s 13
f 73/90/119 72/89/118 9/14/237 38/37/238
s 15
f 34/31/239 74/185/133 73/54/136 38/198/240
s 10
f 1/28/241 75/48/93 74/143/96 34/36/242
s 6
f 1/154/243 2/145/244 76/43/42 75/1/41
s 8
f 2/147/245 8/149/246 77/13/50 76/2/49
s 17
f 78/155/147 77/153/146 8/161/247 46/162/248
s off
f 46/47/249 45/207/250 47/208/251 48/82/252
f 45/45/253 68/56/254 63/83/255 47/81/256
f 78/59/257 46/205/258 48/206/259 69/136/260
f 69/136/261 44/203/262 56/60/263 78/59/264
f 43/140/265 63/83/266 68/56/267 55/168/268
f 44/139/269 43/167/270 55/69/271 56/204/272
s 23
f 52/61/273 88/63/274 87/64/275 51/91/276
s 18
f 16/123/277 79/19/150 47/99/149
s 3
f 13/132/278 80/20/10 79/19/9 16/123/279
s 5
f 5/133/280 81/33/30 80/20/29 13/132/281
s 2
f 3/169/282 82/93/6 81/5/5 5/170/283
s 4
f 83/6/28 82/96/27 3/116/284 12/117/285
s 1
f 9/118/286 84/62/2 83/6/1 12/117/287
s 7
f 85/101/47 84/62/236 9/118/288 72/119/289
f 86/102/48 85/101/47 72/119/289 20/120/290
s 21
f 87/115/164 86/102/163 20/120/291 50/121/292
s 23
f 51/91/276 87/64/275 50/173/293 54/179/294
f 49/180/295 88/63/274 52/61/273 53/183/296
s 21
f 19/122/297 89/97/162 88/103/161 49/174/298
s 7
f 71/177/299 90/100/46 89/97/45 19/122/300
f 10/178/301 91/92/235 90/100/46 71/177/299
s 1
f 92/94/4 91/92/3 10/178/302 11/181/303
s 4
f 4/184/304 93/95/26 92/94/25 11/181/305
s 2
f 94/114/8 93/104/7 4/172/306 6/182/307
s 5
f 95/21/32 94/68/31 6/134/308 14/171/309
s 3
f 96/22/12 95/21/11 14/171/310 15/131/311
s 18
f 48/105/152 96/22/151 15/131/312
